{
  "accessors": [
    {
      "bufferView": 2,
      "componentType": 5126,
      "count": 326,
      "max": [
        215,
        610,
        300
      ],
      "min": [
        -305,
        -0,
        0
      ],
      "type": "VEC3"
    },
    {
      "bufferView": 2,
      "byteOffset": 3912,
      "componentType": 5126,
      "count": 326,
      "max": [
        1,
        1,
        1
      ],
      "min": [
        -1,
        -1,
        -1
      ],
      "type": "VEC3"
    },
    {
      "bufferView": 3,
      "componentType": 5126,
      "count": 326,
      "max": [
        1,
        1,
        1,
        1
      ],
      "min": [
        -1,
        -1,
        -1,
        1
      ],
      "type": "VEC4"
    },
    {
      "bufferView": 1,
      "componentType": 5126,
      "count": 326,
      "max": [
        0.66271799802780151,
        0.6805959939956665
      ],
      "min": [
        0.0099680004641413689,
        0.006022999994456768
      ],
      "type": "VEC2"
    },
    {
      "bufferView": 0,
      "componentType": 5125,
      "count": 618,
      "max": [
        325
      ],
      "min": [
        0
      ],
      "type": "SCALAR"
    },
    {
      "bufferView": 2,
      "byteOffset": 7824,
      "componentType": 5126,
      "count": 20,
      "max": [
        215,
        610,
        454.6263427734375
      ],
      "min": [
        -305,
        -0,
        300
      ],
      "type": "VEC3"
    },
    {
      "bufferView": 2,
      "byteOffset": 8064,
      "componentType": 5126,
      "count": 20,
      "max": [
        1,
        1,
        0
      ],
      "min": [
        0,
        -1,
        0
      ],
      "type": "VEC3"
    },
    {
      "bufferView": 3,
      "byteOffset": 5216,
      "componentType": 5126,
      "count": 20,
      "max": [
        1,
        0,
        1,
        1
      ],
      "min": [
        0,
        0,
        -0.00052546081133186817,
        1
      ],
      "type": "VEC4"
    },
    {
      "bufferView": 1,
      "byteOffset": 2608,
      "componentType": 5126,
      "count": 20,
      "max": [
        0.98625999689102173,
        0.62069201469421387
      ],
      "min": [
        0.48779699206352234,
        0.53620898723602295
      ],
      "type": "VEC2"
    },
    {
      "bufferView": 0,
      "byteOffset": 2472,
      "componentType": 5125,
      "count": 24,
      "max": [
        19
      ],
      "min": [
        0
      ],
      "type": "SCALAR"
    },
    {
      "bufferView": 2,
      "byteOffset": 8304,
      "componentType": 5126,
      "count": 9998,
      "max": [
        -283.23507690429688,
        591.4637451171875,
        271.122802734375
      ],
      "min": [
        -303.37356567382812,
        190.44441223144531,
        -0.68185001611709595
      ],
      "type": "VEC3"
    },
    {
      "bufferView": 2,
      "byteOffset": 128280,
      "componentType": 5126,
      "count": 9998,
      "max": [
        0.99999761581420898,
        0.99999773502349854,
        1
      ],
      "min": [
        -0.99995714426040649,
        -0.99999761581420898,
        -1
      ],
      "type": "VEC3"
    },
    {
      "bufferView": 3,
      "byteOffset": 5536,
      "componentType": 5126,
      "count": 9998,
      "max": [
        0.99999767541885376,
        0.99998772144317627,
        0.35817763209342957,
        1
      ],
      "min": [
        -0.99999767541885376,
        -0.99999910593032837,
        -0.44498571753501892,
        1
      ],
      "type": "VEC4"
    },
    {
      "bufferView": 1,
      "byteOffset": 2768,
      "componentType": 5126,
      "count": 9998,
      "max": [
        0.99051499366760254,
        0.85397201776504517
      ],
      "min": [
        0.4913879930973053,
        0.72886800765991211
      ],
      "type": "VEC2"
    },
    {
      "bufferView": 0,
      "byteOffset": 2568,
      "componentType": 5125,
      "count": 26064,
      "max": [
        9997
      ],
      "min": [
        0
      ],
      "type": "SCALAR"
    },
    {
      "bufferView": 2,
      "byteOffset": 248256,
      "componentType": 5126,
      "count": 9994,
      "max": [
        -283.23507690429688,
        590.9085693359375,
        270.18963623046875
      ],
      "min": [
        -303.37356567382812,
        22.044965744018555,
        -0.68185001611709595
      ],
      "type": "VEC3"
    },
    {
      "bufferView": 2,
      "byteOffset": 368184,
      "componentType": 5126,
      "count": 9994,
      "max": [
        0.99999761581420898,
        0.99999773502349854,
        1
      ],
      "min": [
        -0.99995714426040649,
        -0.99999761581420898,
        -1
      ],
      "type": "VEC3"
    },
    {
      "bufferView": 3,
      "byteOffset": 165504,
      "componentType": 5126,
      "count": 9994,
      "max": [
        0.99999773502349854,
        0.99998772144317627,
        0.35817623138427734,
        1
      ],
      "min": [
        -0.99999767541885376,
        -0.99999916553497314,
        -0.44498416781425476,
        1
      ],
      "type": "VEC4"
    },
    {
      "bufferView": 1,
      "byteOffset": 82752,
      "componentType": 5126,
      "count": 9994,
      "max": [
        0.99051499366760254,
        0.85397201776504517
      ],
      "min": [
        0.4913879930973053,
        0.72886800765991211
      ],
      "type": "VEC2"
    },
    {
      "bufferView": 0,
      "byteOffset": 106824,
      "componentType": 5125,
      "count": 26082,
      "max": [
        9993
      ],
      "min": [
        0
      ],
      "type": "SCALAR"
    },
    {
      "bufferView": 2,
      "byteOffset": 488112,
      "componentType": 5126,
      "count": 9996,
      "max": [
        199.34144592285156,
        607.580810546875,
        271.90570068359375
      ],
      "min": [
        -303.37356567382812,
        22.044965744018555,
        -0.68185001611709595
      ],
      "type": "VEC3"
    },
    {
      "bufferView": 2,
      "byteOffset": 608064,
      "componentType": 5126,
      "count": 9996,
      "max": [
        1,
        1,
        1
      ],
      "min": [
        -1,
        -0.99999761581420898,
        -1
      ],
      "type": "VEC3"
    },
    {
      "bufferView": 3,
      "byteOffset": 325408,
      "componentType": 5126,
      "count": 9996,
      "max": [
        1,
        1,
        0.46316865086555481,
        1
      ],
      "min": [
        -0.99999988079071045,
        -1,
        -0.44529011845588684,
        1
      ],
      "type": "VEC4"
    },
    {
      "bufferView": 1,
      "byteOffset": 162704,
      "componentType": 5126,
      "count": 9996,
      "max": [
        0.99051499366760254,
        0.99356698989868164
      ],
      "min": [
        0.49033600091934204,
        0.6601179838180542
      ],
      "type": "VEC2"
    },
    {
      "bufferView": 0,
      "byteOffset": 211152,
      "componentType": 5125,
      "count": 26058,
      "max": [
        9995
      ],
      "min": [
        0
      ],
      "type": "SCALAR"
    },
    {
      "bufferView": 2,
      "byteOffset": 728016,
      "componentType": 5126,
      "count": 10000,
      "max": [
        199.34144592285156,
        607.580810546875,
        272.29965209960938
      ],
      "min": [
        -297,
        20,
        -0.68185001611709595
      ],
      "type": "VEC3"
    },
    {
      "bufferView": 2,
      "byteOffset": 848016,
      "componentType": 5126,
      "count": 10000,
      "max": [
        1,
        1,
        1
      ],
      "min": [
        -1,
        -0.99999761581420898,
        -1
      ],
      "type": "VEC3"
    },
    {
      "bufferView": 3,
      "byteOffset": 485344,
      "componentType": 5126,
      "count": 10000,
      "max": [
        1,
        1,
        0.46291664242744446,
        1
      ],
      "min": [
        -0.99999988079071045,
        -1,
        -0.44498294591903687,
        1
      ],
      "type": "VEC4"
    },
    {
      "bufferView": 1,
      "byteOffset": 242672,
      "componentType": 5126,
      "count": 10000,
      "max": [
        0.99051499366760254,
        0.99356698989868164
      ],
      "min": [
        0.010073999874293804,
        0.006022999994456768
      ],
      "type": "VEC2"
    },
    {
      "bufferView": 0,
      "byteOffset": 315384,
      "componentType": 5125,
      "count": 26106,
      "max": [
        9999
      ],
      "min": [
        0
      ],
      "type": "SCALAR"
    },
    {
      "bufferView": 2,
      "byteOffset": 968016,
      "componentType": 5126,
      "count": 1820,
      "max": [
        199.34144592285156,
        607.580810546875,
        272.29965209960938
      ],
      "min": [
        -285.70986938476562,
        591.07086181640625,
        0
      ],
      "type": "VEC3"
    },
    {
      "bufferView": 2,
      "byteOffset": 989856,
      "componentType": 5126,
      "count": 1820,
      "max": [
        1,
        1,
        1
      ],
      "min": [
        -1,
        -1,
        -1
      ],
      "type": "VEC3"
    },
    {
      "bufferView": 3,
      "byteOffset": 645344,
      "componentType": 5126,
      "count": 1820,
      "max": [
        1,
        1,
        0.42709642648696899,
        1
      ],
      "min": [
        -1,
        -1,
        -0.37658604979515076,
        1
      ],
      "type": "VEC4"
    },
    {
      "bufferView": 1,
      "byteOffset": 322672,
      "componentType": 5126,
      "count": 1820,
      "max": [
        0.99051499366760254,
        0.85397201776504517
      ],
      "min": [
        0.01857299916446209,
        0.16652600467205048
      ],
      "type": "VEC2"
    },
    {
      "bufferView": 0,
      "byteOffset": 419808,
      "componentType": 5125,
      "count": 4746,
      "max": [
        1819
      ],
      "min": [
        0
      ],
      "type": "SCALAR"
    },
    {
      "bufferView": 2,
      "byteOffset": 1011696,
      "componentType": 5126,
      "count": 9978,
      "max": [
        277.12936401367188,
        663.27960205078125,
        480.59530639648438
      ],
      "min": [
        -374.44244384765625,
        -56.26422119140625,
        276.44915771484375
      ],
      "type": "VEC3"
    },
    {
      "bufferView": 2,
      "byteOffset": 1131432,
      "componentType": 5126,
      "count": 9978,
      "max": [
        1,
        1,
        1
      ],
      "min": [
        -1,
        -1,
        -1
      ],
      "type": "VEC3"
    },
    {
      "bufferView": 1,
      "byteOffset": 337232,
      "componentType": 5126,
      "count": 9978,
      "max": [
        0.9938730001449585,
        0.99191498756408691
      ],
      "min": [
        0.022590000182390213,
        0.011420000344514847
      ],
      "type": "VEC2"
    },
    {
      "bufferView": 0,
      "byteOffset": 438792,
      "componentType": 5125,
      "count": 29340,
      "max": [
        9977
      ],
      "min": [
        0
      ],
      "type": "SCALAR"
    },
    {
      "bufferView": 2,
      "byteOffset": 1251168,
      "componentType": 5126,
      "count": 1860,
      "max": [
        221.29635620117188,
        663.27960205078125,
        473.93344116210938
      ],
      "min": [
        -318.65469360351562,
        -55.8302001953125,
        320.92922973632812
      ],
      "type": "VEC3"
    },
    {
      "bufferView": 2,
      "byteOffset": 1273488,
      "componentType": 5126,
      "count": 1860,
      "max": [
        0.96526545286178589,
        0.014762007631361485,
        0.26089391112327576
      ],
      "min": [
        -0.96537476778030396,
        -1.0000004522225936e-06,
        0.26085412502288818
      ],
      "type": "VEC3"
    },
    {
      "bufferView": 1,
      "byteOffset": 417056,
      "componentType": 5126,
      "count": 1860,
      "max": [
        0.46499800682067871,
        0.95424902439117432
      ],
      "min": [
        0.024206999689340591,
        0.69958800077438354
      ],
      "type": "VEC2"
    },
    {
      "bufferView": 0,
      "byteOffset": 556152,
      "componentType": 5125,
      "count": 5460,
      "max": [
        1859
      ],
      "min": [
        0
      ],
      "type": "SCALAR"
    }
  ],
  "asset": {
    "extras": {
      "author": "Cata_Seron1010 (https://sketchfab.com/Cata_Seron1010)",
      "license": "CC-BY-4.0 (http://creativecommons.org/licenses/by/4.0/)",
      "source": "https://sketchfab.com/3d-models/estructura-terraza-medieval-5a90dbd36924427ca8f3215c29ffe955",
      "title": "Estructura terraza medieval"
    },
    "generator": "Sketchfab-9.72.0",
    "version": "2.0"
  },
  "bufferViews": [
    {
      "buffer": 0,
      "byteLength": 577992,
      "byteOffset": 0,
      "name": "floatBufferViews",
      "target": 34963
    },
    {
      "buffer": 0,
      "byteLength": 431936,
      "byteOffset": 577992,
      "byteStride": 8,
      "name": "floatBufferViews",
      "target": 34962
    },
    {
      "buffer": 0,
      "byteLength": 1295808,
      "byteOffset": 1009928,
      "byteStride": 12,
      "name": "floatBufferViews",
      "target": 34962
    },
    {
      "buffer": 0,
      "byteLength": 674464,
      "byteOffset": 2305736,
      "byteStride": 16,
      "name": "floatBufferViews",
      "target": 34962
    }
  ],
  "buffers": [
    {
      "byteLength": 2980200,
      "uri": "scene.bin"
    }
  ],
  "images": [
    {
      "uri": "textures/lambert2SG_baseColor.png"
    },
    {
      "uri": "textures/lambert2SG_metallicRoughness.png"
    },
    {
      "uri": "textures/lambert2SG_normal.png"
    },
    {
      "uri": "textures/lambert3SG_baseColor.png"
    },
    {
      "uri": "textures/lambert3SG_metallicRoughness.png"
    },
    {
      "uri": "textures/lambert3SG_normal.png"
    },
    {
      "uri": "textures/lambert4SG_baseColor.png"
    },
    {
      "uri": "textures/lambert4SG_metallicRoughness.png"
    }
  ],
  "materials": [
    {
      "doubleSided": true,
      "name": "lambert2SG",
      "normalTexture": {
        "index": 2,
        "scale": 1,
        "texCoord": 0
      },
      "pbrMetallicRoughness": {
        "baseColorFactor": [
          1,
          1,
          1,
          1
        ],
        "baseColorTexture": {
          "index": 0,
          "texCoord": 0
        },
        "metallicFactor": 0,
        "metallicRoughnessTexture": {
          "index": 1,
          "texCoord": 0
        },
        "roughnessFactor": 1
      }
    },
    {
      "doubleSided": true,
      "name": "lambert3SG",
      "normalTexture": {
        "index": 5,
        "scale": 1,
        "texCoord": 0
      },
      "pbrMetallicRoughness": {
        "baseColorFactor": [
          1,
          1,
          1,
          1
        ],
        "baseColorTexture": {
          "index": 3,
          "texCoord": 0
        },
        "metallicFactor": 0,
        "metallicRoughnessTexture": {
          "index": 4,
          "texCoord": 0
        },
        "roughnessFactor": 1
      }
    },
    {
      "doubleSided": true,
      "name": "lambert4SG",
      "pbrMetallicRoughness": {
        "baseColorFactor": [
          1,
          1,
          1,
          1
        ],
        "baseColorTexture": {
          "index": 6,
          "texCoord": 0
        },
        "metallicFactor": 0,
        "metallicRoughnessTexture": {
          "index": 7,
          "texCoord": 0
        },
        "roughnessFactor": 1
      }
    }
  ],
  "meshes": [
    {
      "primitives": [
        {
          "attributes": {
            "NORMAL": 1,
            "POSITION": 0,
            "TANGENT": 2,
            "TEXCOORD_0": 3
          },
          "indices": 4,
          "material": 0,
          "mode": 4
        }
      ]
    },
    {
      "primitives": [
        {
          "attributes": {
            "NORMAL": 6,
            "POSITION": 5,
            "TANGENT": 7,
            "TEXCOORD_0": 8
          },
          "indices": 9,
          "material": 1,
          "mode": 4
        }
      ]
    },
    {
      "primitives": [
        {
          "attributes": {
            "NORMAL": 11,
            "POSITION": 10,
            "TANGENT": 12,
            "TEXCOORD_0": 13
          },
          "indices": 14,
          "material": 1,
          "mode": 4
        }
      ]
    },
    {
      "primitives": [
        {
          "attributes": {
            "NORMAL": 16,
            "POSITION": 15,
            "TANGENT": 17,
            "TEXCOORD_0": 18
          },
          "indices": 19,
          "material": 1,
          "mode": 4
        }
      ]
    },
    {
      "primitives": [
        {
          "attributes": {
            "NORMAL": 21,
            "POSITION": 20,
            "TANGENT": 22,
            "TEXCOORD_0": 23
          },
          "indices": 24,
          "material": 1,
          "mode": 4
        }
      ]
    },
    {
      "primitives": [
        {
          "attributes": {
            "NORMAL": 26,
            "POSITION": 25,
            "TANGENT": 27,
            "TEXCOORD_0": 28
          },
          "indices": 29,
          "material": 1,
          "mode": 4
        }
      ]
    },
    {
      "primitives": [
        {
          "attributes": {
            "NORMAL": 31,
            "POSITION": 30,
            "TANGENT": 32,
            "TEXCOORD_0": 33
          },
          "indices": 34,
          "material": 1,
          "mode": 4
        }
      ]
    },
    {
      "primitives": [
        {
          "attributes": {
            "NORMAL": 36,
            "POSITION": 35,
            "TEXCOORD_0": 37
          },
          "indices": 38,
          "material": 2,
          "mode": 4
        }
      ]
    },
    {
      "primitives": [
        {
          "attributes": {
            "NORMAL": 40,
            "POSITION": 39,
            "TEXCOORD_0": 41
          },
          "indices": 42,
          "material": 2,
          "mode": 4
        }
      ]
    }
  ],
  "nodes": [
    {
      "children": [
        1
      ],
      "name": "RootNode (gltf orientation matrix)",
      "rotation": [
        -0.70710678118654746,
        -0,
        -0,
        0.70710678118654757
      ]
    },
    {
      "children": [
        2
      ],
      "matrix": [
        0.0099999997764825821,
        0,
        0,
        0,
        0,
        0.0099999997764825821,
        0,
        0,
        0,
        0,
        0.0099999997764825821,
        0,
        0,
        0,
        0,
        1
      ],
      "name": "RootNode (model correction matrix)"
    },
    {
      "children": [
        3,
        4,
        5,
        6,
        7,
        8,
        9,
        10,
        11
      ],
      "name": "CASA2.obj.cleaner.materialmerger.gles"
    },
    {
      "mesh": 0,
      "name": ""
    },
    {
      "mesh": 1,
      "name": ""
    },
    {
      "mesh": 2,
      "name": ""
    },
    {
      "mesh": 3,
      "name": ""
    },
    {
      "mesh": 4,
      "name": ""
    },
    {
      "mesh": 5,
      "name": ""
    },
    {
      "mesh": 6,
      "name": ""
    },
    {
      "mesh": 7,
      "name": ""
    },
    {
      "mesh": 8,
      "name": ""
    }
  ],
  "samplers": [
    {
      "magFilter": 9729,
      "minFilter": 9987,
      "wrapS": 10497,
      "wrapT": 10497
    }
  ],
  "scene": 0,
  "scenes": [
    {
      "name": "OSG_Scene",
      "nodes": [
        0
      ]
    }
  ],
  "textures": [
    {
      "sampler": 0,
      "source": 0
    },
    {
      "sampler": 0,
      "source": 1
    },
    {
      "sampler": 0,
      "source": 2
    },
    {
      "sampler": 0,
      "source": 3
    },
    {
      "sampler": 0,
      "source": 4
    },
    {
      "sampler": 0,
      "source": 5
    },
    {
      "sampler": 0,
      "source": 6
    },
    {
      "sampler": 0,
      "source": 7
    }
  ]
}

