<svg id="Layer_1" data-name="Layer 1" xmlns="http://www.w3.org/2000/svg" viewBox="0 0 16 16"><defs><style>.cls-1{fill:#afb0b0;}.cls-2{fill:#b6b7b8;}.cls-3{fill:#b1babf;}.cls-4{fill:#b2bcc0;}.cls-5{fill:#afb9bf;}.cls-6{fill:#aeb9be;}.cls-7{fill:#b5bcc0;}.cls-8{fill:#b4bcbf;}.cls-9{fill:#b0babe;}.cls-10{fill:#aeb6bc;}.cls-11{fill:#afb8bc;}.cls-12{fill:#b2bbbe;}.cls-13{fill:#b2bec5;}.cls-14{fill:#b1bdc4;}.cls-15{fill:#b3bec3;}.cls-16{fill:#c4c7c9;}.cls-17{fill:#b0bbc2;}.cls-18{fill:#b3bfc7;}.cls-19{fill:#acbac2;}.cls-20{fill:#b4c1c8;}.cls-21{fill:#b5c3c9;}.cls-22{fill:#b1bec5;}.cls-23{fill:#adbbc4;}.cls-24{fill:#afb6bb;}.cls-25{fill:#b1bdc6;}.cls-26{fill:#b3bfc5;}.cls-27{fill:#bbc5ca;}.cls-28{fill:#ced5d9;}.cls-29{fill:#bfc5c8;}.cls-30{fill:#c4c4c4;}.cls-31{fill:#b8c3c9;}.cls-32{fill:#acb9c0;}.cls-33{fill:#b5c1c8;}.cls-34{fill:#b4c0c7;}.cls-35{fill:#afbec4;}.cls-36{fill:#b1bdc3;}.cls-37{fill:#b0bdc4;}.cls-38{fill:#bdc8ce;}.cls-39{fill:#b6c2c8;}.cls-40{fill:#bbc7cb;}.cls-41{fill:#c4d0d4;}.cls-42{fill:#ced6db;}.cls-43{fill:#d8dfe0;}.cls-44{fill:#acb9c1;}.cls-45{fill:#acbbc1;}.cls-46{fill:#b6c2c9;}.cls-47{fill:#b4c1c7;}.cls-48{fill:#b0bec4;}.cls-49{fill:#b3bfc6;}.cls-50{fill:#c1cad0;}.cls-51{fill:#bbc6cc;}.cls-52{fill:#b8c4ca;}.cls-53{fill:#c9d2d7;}.cls-54{fill:#c6d0d4;}.cls-55{fill:#c7d0d3;}.cls-56{fill:#b7c2ca;}.cls-57{fill:#b0bec5;}.cls-58{fill:#b0bcc4;}.cls-59{fill:#adbbc2;}.cls-60{fill:#afbcc3;}.cls-61{fill:#b5c1c6;}.cls-62{fill:#b1bfc5;}.cls-63{fill:#d4dcde;}.cls-64{fill:#e5e9ea;}.cls-65{fill:#c3cdd3;}.cls-66{fill:#b6bfc6;}.cls-67{fill:#b1bec4;}.cls-68{fill:#afbdc4;}.cls-69{fill:#bdc8cc;}.cls-70{fill:#b8c4cb;}.cls-71{fill:#d4dbdf;}.cls-72{fill:#fcfcfb;}.cls-73{fill:#c3cdd2;}.cls-74{fill:#c2ccd0;}.cls-75{fill:#c0c5c8;}.cls-76{fill:#bdc6cc;}.cls-77{fill:#afbdc2;}.cls-78{fill:#b7c3c9;}.cls-79{fill:#b9c5cb;}.cls-80{fill:#b6c1c7;}.cls-81{fill:#d7dde1;}.cls-82{fill:#f5f6f6;}.cls-83{fill:#ced6da;}.cls-84{fill:#b4bfc7;}.cls-85{fill:#bdc2c5;}.cls-86{fill:#b1bbc0;}.cls-87{fill:#b3c0c7;}.cls-88{fill:#b1bec6;}.cls-89{fill:#bcc7cd;}.cls-90{fill:#ccd4da;}.cls-91{fill:#d0d9db;}.cls-92{fill:#eef0f1;}.cls-93{fill:#cdd6d8;}.cls-94{fill:#b6c0c8;}.cls-95{fill:#cfd7db;}.cls-96{fill:#b9bfc2;}.cls-97{fill:#b9c0c4;}.cls-98{fill:#c8d2d5;}.cls-99{fill:#d6dce0;}.cls-100{fill:#e0e5e8;}.cls-101{fill:#c5ced3;}.cls-102{fill:#bcc7cc;}.cls-103{fill:#d6dddf;}.cls-104{fill:#c5cfd4;}.cls-105{fill:#bec5c8;}.cls-106{fill:#bac2c6;}.cls-107{fill:#b7c4c9;}.cls-108{fill:#bbc6cb;}.cls-109{fill:#d0d8db;}.cls-110{fill:#c2ccd1;}.cls-111{fill:#cfd5d9;}.cls-112{fill:#c7cfd4;}.cls-113{fill:#cbd5d8;}.cls-114{fill:#b9c6cb;}.cls-115{fill:#bec9cd;}.cls-116{fill:#b3bdc4;}.cls-117{fill:#b5c2c9;}.cls-118{fill:#dae0e1;}.cls-119{fill:#bfc9cf;}.cls-120{fill:#bcc8cb;}.cls-121{fill:#d4dcdf;}.cls-122{fill:#d4dbde;}.cls-123{fill:#b6c1c8;}.cls-124{fill:#c3ccd2;}.cls-125{fill:#bac6cc;}.cls-126{fill:#b8c3c8;}.cls-127{fill:#c9d3d6;}.cls-128{fill:#b7c3ca;}.cls-129{fill:#cfd6da;}.cls-130{fill:#ebf0f0;}.cls-131{fill:#e5e8ea;}.cls-132{fill:#b4c1c6;}.cls-133{fill:#bac5ca;}.cls-134{fill:#b1bdc5;}.cls-135{fill:#c5cfd3;}.cls-136{fill:#e9ecec;}.cls-137{fill:#c5cfd2;}.cls-138{fill:#e1e5e8;}.cls-139{fill:#fbfbfa;}.cls-140{fill:#e8eded;}.cls-141{fill:#b7c1c8;}.cls-142{fill:#adbbc3;}.cls-143{fill:#b0bec6;}.cls-144{fill:#d8dde0;}.cls-145{fill:#e8ebec;}.cls-146{fill:#e8edec;}.cls-147{fill:#fefffd;}.cls-148{fill:#f9faf9;}.cls-149{fill:#abb8c1;}.cls-150{fill:#aeb9c0;}.cls-151{fill:#adb9bf;}.cls-152{fill:#c1c9cd;}.cls-153{fill:#b5c0c7;}.cls-154{fill:#b7c1c7;}.cls-155{fill:#aeafb0;}</style></defs><rect class="cls-1" x="15" y="15" width="1" height="1" transform="translate(31 31) rotate(180)"/><rect class="cls-1" x="14" y="15" width="1" height="1" transform="translate(29 31) rotate(180)"/><rect class="cls-1" x="13" y="15" width="1" height="1" transform="translate(27 31) rotate(180)"/><rect class="cls-1" x="12" y="15" width="1" height="1" transform="translate(25 31) rotate(180)"/><rect class="cls-1" x="11" y="15" width="1" height="1" transform="translate(23 31) rotate(180)"/><rect class="cls-1" x="10" y="15" width="1" height="1" transform="translate(21 31) rotate(180)"/><rect class="cls-1" x="9" y="15" width="1" height="1" transform="translate(19 31) rotate(180)"/><rect class="cls-1" x="8" y="15" width="1" height="1" transform="translate(17 31) rotate(180)"/><rect class="cls-1" x="7" y="15" width="1" height="1" transform="translate(15 31) rotate(180)"/><rect class="cls-1" x="6" y="15" width="1" height="1" transform="translate(13 31) rotate(180)"/><rect class="cls-1" x="5" y="15" width="1" height="1" transform="translate(11 31) rotate(180)"/><rect class="cls-1" x="4" y="15" width="1" height="1" transform="translate(9 31) rotate(180)"/><rect class="cls-1" x="3" y="15" width="1" height="1" transform="translate(7 31) rotate(180)"/><rect class="cls-1" x="2" y="15" width="1" height="1" transform="translate(5 31) rotate(180)"/><rect class="cls-1" x="1" y="15" width="1" height="1" transform="translate(3 31) rotate(180)"/><rect class="cls-1" y="15" width="1" height="1" transform="translate(1 31) rotate(180)"/><rect class="cls-2" x="15" y="14" width="1" height="1" transform="translate(31 29) rotate(180)"/><rect class="cls-3" x="14" y="14" width="1" height="1" transform="translate(29 29) rotate(180)"/><rect class="cls-4" x="13" y="14" width="1" height="1" transform="translate(27 29) rotate(180)"/><rect class="cls-5" x="12" y="14" width="1" height="1" transform="translate(25 29) rotate(180)"/><rect class="cls-6" x="11" y="14" width="1" height="1" transform="translate(23 29) rotate(180)"/><rect class="cls-7" x="10" y="14" width="1" height="1" transform="translate(21 29) rotate(180)"/><rect class="cls-8" x="9" y="14" width="1" height="1" transform="translate(19 29) rotate(180)"/><rect class="cls-9" x="8" y="14" width="1" height="1" transform="translate(17 29) rotate(180)"/><rect class="cls-10" x="7" y="14" width="1" height="1" transform="translate(15 29) rotate(180)"/><rect class="cls-11" x="6" y="14" width="1" height="1" transform="translate(13 29) rotate(180)"/><rect class="cls-12" x="5" y="14" width="1" height="1" transform="translate(11 29) rotate(180)"/><rect class="cls-13" x="4" y="14" width="1" height="1" transform="translate(9 29) rotate(180)"/><rect class="cls-14" x="3" y="14" width="1" height="1" transform="translate(7 29) rotate(180)"/><rect class="cls-15" x="2" y="14" width="1" height="1" transform="translate(5 29) rotate(180)"/><rect class="cls-16" x="1" y="14" width="1" height="1" transform="translate(3 29) rotate(180)"/><rect class="cls-1" y="14" width="1" height="1" transform="translate(1 29) rotate(180)"/><rect class="cls-2" x="15" y="13" width="1" height="1" transform="translate(31 27) rotate(180)"/><rect class="cls-17" x="14" y="13" width="1" height="1" transform="translate(29 27) rotate(180)"/><rect class="cls-18" x="13" y="13" width="1" height="1" transform="translate(27 27) rotate(180)"/><rect class="cls-19" x="12" y="13" width="1" height="1" transform="translate(25 27) rotate(180)"/><rect class="cls-20" x="11" y="13" width="1" height="1" transform="translate(23 27) rotate(180)"/><rect class="cls-21" x="10" y="13" width="1" height="1" transform="translate(21 27) rotate(180)"/><rect class="cls-22" x="9" y="13" width="1" height="1" transform="translate(19 27) rotate(180)"/><rect class="cls-23" x="8" y="13" width="1" height="1" transform="translate(17 27) rotate(180)"/><rect class="cls-24" x="7" y="13" width="1" height="1" transform="translate(15 27) rotate(180)"/><rect class="cls-25" x="6" y="13" width="1" height="1" transform="translate(13 27) rotate(180)"/><rect class="cls-26" x="5" y="13" width="1" height="1" transform="translate(11 27) rotate(180)"/><rect class="cls-22" x="4" y="13" width="1" height="1" transform="translate(9 27) rotate(180)"/><rect class="cls-27" x="3" y="13" width="1" height="1" transform="translate(7 27) rotate(180)"/><rect class="cls-28" x="2" y="13" width="1" height="1" transform="translate(5 27) rotate(180)"/><rect class="cls-29" x="1" y="13" width="1" height="1" transform="translate(3 27) rotate(180)"/><rect class="cls-30" y="13" width="1" height="1" transform="translate(1 27) rotate(180)"/><rect class="cls-2" x="15" y="12" width="1" height="1" transform="translate(31 25) rotate(180)"/><rect class="cls-31" x="14" y="12" width="1" height="1" transform="translate(29 25) rotate(180)"/><rect class="cls-32" x="13" y="12" width="1" height="1" transform="translate(27 25) rotate(180)"/><rect class="cls-22" x="12" y="12" width="1" height="1" transform="translate(25 25) rotate(180)"/><rect class="cls-33" x="11" y="12" width="1" height="1" transform="translate(23 25) rotate(180)"/><rect class="cls-34" x="10" y="12" width="1" height="1" transform="translate(21 25) rotate(180)"/><rect class="cls-35" x="9" y="12" width="1" height="1" transform="translate(19 25) rotate(180)"/><rect class="cls-36" x="8" y="12" width="1" height="1" transform="translate(17 25) rotate(180)"/><rect class="cls-37" x="7" y="12" width="1" height="1" transform="translate(15 25) rotate(180)"/><rect class="cls-38" x="6" y="12" width="1" height="1" transform="translate(13 25) rotate(180)"/><rect class="cls-39" x="5" y="12" width="1" height="1" transform="translate(11 25) rotate(180)"/><rect class="cls-40" x="4" y="12" width="1" height="1" transform="translate(9 25) rotate(180)"/><rect class="cls-41" x="3" y="12" width="1" height="1" transform="translate(7 25) rotate(180)"/><rect class="cls-42" x="2" y="12" width="1" height="1" transform="translate(5 25) rotate(180)"/><rect class="cls-43" x="1" y="12" width="1" height="1" transform="translate(3 25) rotate(180)"/><rect class="cls-30" y="12" width="1" height="1" transform="translate(1 25) rotate(180)"/><rect class="cls-30" x="15" y="11" width="1" height="1" transform="translate(31 23) rotate(180)"/><rect class="cls-44" x="14" y="11" width="1" height="1" transform="translate(29 23) rotate(180)"/><rect class="cls-45" x="13" y="11" width="1" height="1" transform="translate(27 23) rotate(180)"/><rect class="cls-46" x="12" y="11" width="1" height="1" transform="translate(25 23) rotate(180)"/><rect class="cls-47" x="11" y="11" width="1" height="1" transform="translate(23 23) rotate(180)"/><rect class="cls-37" x="10" y="11" width="1" height="1" transform="translate(21 23) rotate(180)"/><rect class="cls-33" x="9" y="11" width="1" height="1" transform="translate(19 23) rotate(180)"/><rect class="cls-48" x="8" y="11" width="1" height="1" transform="translate(17 23) rotate(180)"/><rect class="cls-49" x="7" y="11" width="1" height="1" transform="translate(15 23) rotate(180)"/><rect class="cls-50" x="6" y="11" width="1" height="1" transform="translate(13 23) rotate(180)"/><rect class="cls-51" x="5" y="11" width="1" height="1" transform="translate(11 23) rotate(180)"/><rect class="cls-52" x="4" y="11" width="1" height="1" transform="translate(9 23) rotate(180)"/><rect class="cls-53" x="3" y="11" width="1" height="1" transform="translate(7 23) rotate(180)"/><rect class="cls-54" x="2" y="11" width="1" height="1" transform="translate(5 23) rotate(180)"/><rect class="cls-55" x="1" y="11" width="1" height="1" transform="translate(3 23) rotate(180)"/><rect class="cls-30" y="11" width="1" height="1" transform="translate(1 23) rotate(180)"/><rect class="cls-30" x="15" y="10" width="1" height="1" transform="translate(31 21) rotate(180)"/><rect class="cls-32" x="14" y="10" width="1" height="1" transform="translate(29 21) rotate(180)"/><rect class="cls-56" x="13" y="10" width="1" height="1" transform="translate(27 21) rotate(180)"/><rect class="cls-57" x="12" y="10" width="1" height="1" transform="translate(25 21) rotate(180)"/><rect class="cls-58" x="11" y="10" width="1" height="1" transform="translate(23 21) rotate(180)"/><rect class="cls-13" x="10" y="10" width="1" height="1" transform="translate(21 21) rotate(180)"/><rect class="cls-59" x="9" y="10" width="1" height="1" transform="translate(19 21) rotate(180)"/><rect class="cls-60" x="8" y="10" width="1" height="1" transform="translate(17 21) rotate(180)"/><rect class="cls-61" x="7" y="10" width="1" height="1" transform="translate(15 21) rotate(180)"/><rect class="cls-40" x="6" y="10" width="1" height="1" transform="translate(13 21) rotate(180)"/><rect class="cls-62" x="5" y="10" width="1" height="1" transform="translate(11 21) rotate(180)"/><rect class="cls-63" x="4" y="10" width="1" height="1" transform="translate(9 21) rotate(180)"/><rect class="cls-64" x="3" y="10" width="1" height="1" transform="translate(7 21) rotate(180)"/><rect class="cls-65" x="2" y="10" width="1" height="1" transform="translate(5 21) rotate(180)"/><rect class="cls-66" x="1" y="10" width="1" height="1" transform="translate(3 21) rotate(180)"/><rect class="cls-30" y="10" width="1" height="1" transform="translate(1 21) rotate(180)"/><rect class="cls-30" x="15" y="9" width="1" height="1" transform="translate(31 19) rotate(180)"/><rect class="cls-67" x="14" y="9" width="1" height="1" transform="translate(29 19) rotate(180)"/><rect class="cls-26" x="13" y="9" width="1" height="1" transform="translate(27 19) rotate(180)"/><rect class="cls-37" x="12" y="9" width="1" height="1" transform="translate(25 19) rotate(180)"/><rect class="cls-68" x="11" y="9" width="1" height="1" transform="translate(23 19) rotate(180)"/><rect class="cls-59" x="10" y="9" width="1" height="1" transform="translate(21 19) rotate(180)"/><rect class="cls-31" x="9" y="9" width="1" height="1" transform="translate(19 19) rotate(180)"/><rect class="cls-69" x="8" y="9" width="1" height="1" transform="translate(17 19) rotate(180)"/><rect class="cls-70" x="7" y="9" width="1" height="1" transform="translate(15 19) rotate(180)"/><rect class="cls-14" x="6" y="9" width="1" height="1" transform="translate(13 19) rotate(180)"/><rect class="cls-71" x="5" y="9" width="1" height="1" transform="translate(11 19) rotate(180)"/><rect class="cls-72" x="4" y="9" width="1" height="1" transform="translate(9 19) rotate(180)"/><rect class="cls-73" x="3" y="9" width="1" height="1" transform="translate(7 19) rotate(180)"/><rect class="cls-74" x="2" y="9" width="1" height="1" transform="translate(5 19) rotate(180)"/><rect class="cls-75" x="1" y="9" width="1" height="1" transform="translate(3 19) rotate(180)"/><rect class="cls-30" y="9" width="1" height="1" transform="translate(1 19) rotate(180)"/><rect class="cls-30" x="15" y="8" width="1" height="1" transform="translate(31 17) rotate(180)"/><rect class="cls-76" x="14" y="8" width="1" height="1" transform="translate(29 17) rotate(180)"/><rect class="cls-37" x="13" y="8" width="1" height="1" transform="translate(27 17) rotate(180)"/><rect class="cls-37" x="12" y="8" width="1" height="1" transform="translate(25 17) rotate(180)"/><rect class="cls-77" x="11" y="8" width="1" height="1" transform="translate(23 17) rotate(180)"/><rect class="cls-78" x="10" y="8" width="1" height="1" transform="translate(21 17) rotate(180)"/><rect class="cls-51" x="9" y="8" width="1" height="1" transform="translate(19 17) rotate(180)"/><rect class="cls-79" x="8" y="8" width="1" height="1" transform="translate(17 17) rotate(180)"/><rect class="cls-80" x="7" y="8" width="1" height="1" transform="translate(15 17) rotate(180)"/><rect class="cls-81" x="6" y="8" width="1" height="1" transform="translate(13 17) rotate(180)"/><rect class="cls-82" x="5" y="8" width="1" height="1" transform="translate(11 17) rotate(180)"/><rect class="cls-83" x="4" y="8" width="1" height="1" transform="translate(9 17) rotate(180)"/><rect class="cls-52" x="3" y="8" width="1" height="1" transform="translate(7 17) rotate(180)"/><rect class="cls-84" x="2" y="8" width="1" height="1" transform="translate(5 17) rotate(180)"/><rect class="cls-85" x="1" y="8" width="1" height="1" transform="translate(3 17) rotate(180)"/><rect class="cls-30" y="8" width="1" height="1" transform="translate(1 17) rotate(180)"/><rect class="cls-1" x="15" y="7" width="1" height="1" transform="translate(31 15) rotate(180)"/><rect class="cls-86" x="14" y="7" width="1" height="1" transform="translate(29 15) rotate(180)"/><rect class="cls-37" x="13" y="7" width="1" height="1" transform="translate(27 15) rotate(180)"/><rect class="cls-87" x="12" y="7" width="1" height="1" transform="translate(25 15) rotate(180)"/><rect class="cls-88" x="11" y="7" width="1" height="1" transform="translate(23 15) rotate(180)"/><rect class="cls-89" x="10" y="7" width="1" height="1" transform="translate(21 15) rotate(180)"/><rect class="cls-90" x="9" y="7" width="1" height="1" transform="translate(19 15) rotate(180)"/><rect class="cls-55" x="8" y="7" width="1" height="1" transform="translate(17 15) rotate(180)"/><rect class="cls-91" x="7" y="7" width="1" height="1" transform="translate(15 15) rotate(180)"/><rect class="cls-92" x="6" y="7" width="1" height="1" transform="translate(13 15) rotate(180)"/><rect class="cls-93" x="5" y="7" width="1" height="1" transform="translate(11 15) rotate(180)"/><rect class="cls-94" x="4" y="7" width="1" height="1" transform="translate(9 15) rotate(180)"/><rect class="cls-34" x="3" y="7" width="1" height="1" transform="translate(7 15) rotate(180)"/><rect class="cls-95" x="2" y="7" width="1" height="1" transform="translate(5 15) rotate(180)"/><rect class="cls-96" x="1" y="7" width="1" height="1" transform="translate(3 15) rotate(180)"/><rect class="cls-2" y="7" width="1" height="1" transform="translate(1 15) rotate(180)"/><rect class="cls-1" x="15" y="6" width="1" height="1" transform="translate(31 13) rotate(180)"/><rect class="cls-97" x="14" y="6" width="1" height="1" transform="translate(29 13) rotate(180)"/><rect class="cls-48" x="13" y="6" width="1" height="1" transform="translate(27 13) rotate(180)"/><rect class="cls-62" x="12" y="6" width="1" height="1" transform="translate(25 13) rotate(180)"/><rect class="cls-52" x="11" y="6" width="1" height="1" transform="translate(23 13) rotate(180)"/><rect class="cls-98" x="10" y="6" width="1" height="1" transform="translate(21 13) rotate(180)"/><rect class="cls-99" x="9" y="6" width="1" height="1" transform="translate(19 13) rotate(180)"/><rect class="cls-83" x="8" y="6" width="1" height="1" transform="translate(17 13) rotate(180)"/><rect class="cls-100" x="7" y="6" width="1" height="1" transform="translate(15 13) rotate(180)"/><rect class="cls-101" x="6" y="6" width="1" height="1" transform="translate(13 13) rotate(180)"/><rect class="cls-102" x="5" y="6" width="1" height="1" transform="translate(11 13) rotate(180)"/><rect class="cls-47" x="4" y="6" width="1" height="1" transform="translate(9 13) rotate(180)"/><rect class="cls-103" x="3" y="6" width="1" height="1" transform="translate(7 13) rotate(180)"/><rect class="cls-104" x="2" y="6" width="1" height="1" transform="translate(5 13) rotate(180)"/><rect class="cls-105" x="1" y="6" width="1" height="1" transform="translate(3 13) rotate(180)"/><rect class="cls-2" y="6" width="1" height="1" transform="translate(1 13) rotate(180)"/><rect class="cls-1" x="15" y="5" width="1" height="1" transform="translate(31 11) rotate(180)"/><rect class="cls-106" x="14" y="5" width="1" height="1" transform="translate(29 11) rotate(180)"/><rect class="cls-107" x="13" y="5" width="1" height="1" transform="translate(27 11) rotate(180)"/><rect class="cls-108" x="12" y="5" width="1" height="1" transform="translate(25 11) rotate(180)"/><rect class="cls-63" x="11" y="5" width="1" height="1" transform="translate(23 11) rotate(180)"/><rect class="cls-109" x="10" y="5" width="1" height="1" transform="translate(21 11) rotate(180)"/><rect class="cls-110" x="9" y="5" width="1" height="1" transform="translate(19 11) rotate(180)"/><rect class="cls-111" x="8" y="5" width="1" height="1" transform="translate(17 11) rotate(180)"/><rect class="cls-112" x="7" y="5" width="1" height="1" transform="translate(15 11) rotate(180)"/><rect class="cls-101" x="6" y="5" width="1" height="1" transform="translate(13 11) rotate(180)"/><rect class="cls-84" x="5" y="5" width="1" height="1" transform="translate(11 11) rotate(180)"/><rect class="cls-113" x="4" y="5" width="1" height="1" transform="translate(9 11) rotate(180)"/><rect class="cls-114" x="3" y="5" width="1" height="1" transform="translate(7 11) rotate(180)"/><rect class="cls-115" x="2" y="5" width="1" height="1" transform="translate(5 11) rotate(180)"/><rect class="cls-14" x="1" y="5" width="1" height="1" transform="translate(3 11) rotate(180)"/><rect class="cls-2" y="5" width="1" height="1" transform="translate(1 11) rotate(180)"/><rect class="cls-1" x="15" y="4" width="1" height="1" transform="translate(31 9) rotate(180)"/><rect class="cls-116" x="14" y="4" width="1" height="1" transform="translate(29 9) rotate(180)"/><rect class="cls-117" x="13" y="4" width="1" height="1" transform="translate(27 9) rotate(180)"/><rect class="cls-118" x="12" y="4" width="1" height="1" transform="translate(25 9) rotate(180)"/><rect class="cls-119" x="11" y="4" width="1" height="1" transform="translate(23 9) rotate(180)"/><rect class="cls-120" x="10" y="4" width="1" height="1" transform="translate(21 9) rotate(180)"/><rect class="cls-73" x="9" y="4" width="1" height="1" transform="translate(19 9) rotate(180)"/><rect class="cls-121" x="8" y="4" width="1" height="1" transform="translate(17 9) rotate(180)"/><rect class="cls-122" x="7" y="4" width="1" height="1" transform="translate(15 9) rotate(180)"/><rect class="cls-123" x="6" y="4" width="1" height="1" transform="translate(13 9) rotate(180)"/><rect class="cls-124" x="5" y="4" width="1" height="1" transform="translate(11 9) rotate(180)"/><rect class="cls-125" x="4" y="4" width="1" height="1" transform="translate(9 9) rotate(180)"/><rect class="cls-119" x="3" y="4" width="1" height="1" transform="translate(7 9) rotate(180)"/><rect class="cls-57" x="2" y="4" width="1" height="1" transform="translate(5 9) rotate(180)"/><rect class="cls-80" x="1" y="4" width="1" height="1" transform="translate(3 9) rotate(180)"/><rect class="cls-2" y="4" width="1" height="1" transform="translate(1 9) rotate(180)"/><rect class="cls-1" x="15" y="3" width="1" height="1" transform="translate(31 7) rotate(180)"/><rect class="cls-126" x="14" y="3" width="1" height="1" transform="translate(29 7) rotate(180)"/><rect class="cls-127" x="13" y="3" width="1" height="1" transform="translate(27 7) rotate(180)"/><rect class="cls-128" x="12" y="3" width="1" height="1" transform="translate(25 7) rotate(180)"/><rect class="cls-26" x="11" y="3" width="1" height="1" transform="translate(23 7) rotate(180)"/><rect class="cls-129" x="10" y="3" width="1" height="1" transform="translate(21 7) rotate(180)"/><rect class="cls-130" x="9" y="3" width="1" height="1" transform="translate(19 7) rotate(180)"/><rect class="cls-131" x="8" y="3" width="1" height="1" transform="translate(17 7) rotate(180)"/><rect class="cls-46" x="7" y="3" width="1" height="1" transform="translate(15 7) rotate(180)"/><rect class="cls-132" x="6" y="3" width="1" height="1" transform="translate(13 7) rotate(180)"/><rect class="cls-123" x="5" y="3" width="1" height="1" transform="translate(11 7) rotate(180)"/><rect class="cls-133" x="4" y="3" width="1" height="1" transform="translate(9 7) rotate(180)"/><rect class="cls-22" x="3" y="3" width="1" height="1" transform="translate(7 7) rotate(180)"/><rect class="cls-33" x="2" y="3" width="1" height="1" transform="translate(5 7) rotate(180)"/><rect class="cls-134" x="1" y="3" width="1" height="1" transform="translate(3 7) rotate(180)"/><rect class="cls-2" y="3" width="1" height="1" transform="translate(1 7) rotate(180)"/><rect class="cls-30" x="15" y="2" width="1" height="1" transform="translate(31 5) rotate(180)"/><rect class="cls-135" x="14" y="2" width="1" height="1" transform="translate(29 5) rotate(180)"/><rect class="cls-136" x="13" y="2" width="1" height="1" transform="translate(27 5) rotate(180)"/><rect class="cls-137" x="12" y="2" width="1" height="1" transform="translate(25 5) rotate(180)"/><rect class="cls-138" x="11" y="2" width="1" height="1" transform="translate(23 5) rotate(180)"/><rect class="cls-139" x="10" y="2" width="1" height="1" transform="translate(21 5) rotate(180)"/><rect class="cls-140" x="9" y="2" width="1" height="1" transform="translate(19 5) rotate(180)"/><rect class="cls-141" x="8" y="2" width="1" height="1" transform="translate(17 5) rotate(180)"/><rect class="cls-142" x="7" y="2" width="1" height="1" transform="translate(15 5) rotate(180)"/><rect class="cls-60" x="6" y="2" width="1" height="1" transform="translate(13 5) rotate(180)"/><rect class="cls-49" x="5" y="2" width="1" height="1" transform="translate(11 5) rotate(180)"/><rect class="cls-57" x="4" y="2" width="1" height="1" transform="translate(9 5) rotate(180)"/><rect class="cls-79" x="3" y="2" width="1" height="1" transform="translate(7 5) rotate(180)"/><rect class="cls-143" x="2" y="2" width="1" height="1" transform="translate(5 5) rotate(180)"/><rect class="cls-34" x="1" y="2" width="1" height="1" transform="translate(3 5) rotate(180)"/><rect class="cls-1" y="2" width="1" height="1" transform="translate(1 5) rotate(180)"/><rect class="cls-2" x="15" y="1" width="1" height="1" transform="translate(31 3) rotate(180)"/><rect class="cls-144" x="14" y="1" width="1" height="1" transform="translate(29 3) rotate(180)"/><rect class="cls-145" x="13" y="1" width="1" height="1" transform="translate(27 3) rotate(180)"/><rect class="cls-146" x="12" y="1" width="1" height="1" transform="translate(25 3) rotate(180)"/><rect class="cls-147" x="11" y="1" width="1" height="1" transform="translate(23 3) rotate(180)"/><rect class="cls-148" x="10" y="1" width="1" height="1" transform="translate(21 3) rotate(180)"/><rect class="cls-52" x="9" y="1" width="1" height="1" transform="translate(19 3) rotate(180)"/><rect class="cls-149" x="8" y="1" width="1" height="1" transform="translate(17 3) rotate(180)"/><rect class="cls-150" x="7" y="1" width="1" height="1" transform="translate(15 3) rotate(180)"/><rect class="cls-151" x="6" y="1" width="1" height="1" transform="translate(13 3) rotate(180)"/><rect class="cls-57" x="5" y="1" width="1" height="1" transform="translate(11 3) rotate(180)"/><rect class="cls-152" x="4" y="1" width="1" height="1" transform="translate(9 3) rotate(180)"/><rect class="cls-153" x="3" y="1" width="1" height="1" transform="translate(7 3) rotate(180)"/><rect class="cls-58" x="2" y="1" width="1" height="1" transform="translate(5 3) rotate(180)"/><rect class="cls-154" x="1" y="1" width="1" height="1" transform="translate(3 3) rotate(180)"/><rect class="cls-1" y="1" width="1" height="1" transform="translate(1 3) rotate(180)"/><rect class="cls-1" x="15" width="1" height="1" transform="translate(31 1) rotate(180)"/><rect class="cls-2" x="14" width="1" height="1" transform="translate(29 1) rotate(180)"/><rect class="cls-2" x="13" width="1" height="1" transform="translate(27 1) rotate(180)"/><rect class="cls-2" x="12" width="1" height="1" transform="translate(25 1) rotate(180)"/><rect class="cls-2" x="11" width="1" height="1" transform="translate(23 1) rotate(180)"/><rect class="cls-2" x="10" width="1" height="1" transform="translate(21 1) rotate(180)"/><rect class="cls-2" x="9" width="1" height="1" transform="translate(19 1) rotate(180)"/><rect class="cls-2" x="8" width="1" height="1" transform="translate(17 1) rotate(180)"/><rect class="cls-2" x="7" width="1" height="1" transform="translate(15 1) rotate(180)"/><rect class="cls-2" x="6" width="1" height="1" transform="translate(13 1) rotate(180)"/><rect class="cls-2" x="5" width="1" height="1" transform="translate(11 1) rotate(180)"/><rect class="cls-30" x="4" width="1" height="1" transform="translate(9 1) rotate(180)"/><rect class="cls-2" x="3" width="1" height="1" transform="translate(7 1) rotate(180)"/><rect class="cls-2" x="2" width="1" height="1" transform="translate(5 1) rotate(180)"/><rect class="cls-155" x="1" width="1" height="1" transform="translate(3 1) rotate(180)"/><rect class="cls-1" width="1" height="1" transform="translate(1 1) rotate(180)"/></svg>