<svg id="Layer_1" data-name="Layer 1" xmlns="http://www.w3.org/2000/svg" viewBox="0 0 16 16"><defs><style>.cls-1{fill:#543933;}.cls-2{fill:#4a3740;}.cls-3{fill:#472424;}.cls-4{fill:#302024;}</style></defs><rect class="cls-1" x="15" y="15" width="1" height="1" transform="translate(31 31) rotate(180)"/><rect class="cls-2" x="14" y="15" width="1" height="1" transform="translate(29 31) rotate(180)"/><rect class="cls-3" x="13" y="15" width="1" height="1" transform="translate(27 31) rotate(180)"/><rect class="cls-1" x="12" y="15" width="1" height="1" transform="translate(25 31) rotate(180)"/><rect class="cls-3" x="11" y="15" width="1" height="1" transform="translate(23 31) rotate(180)"/><rect class="cls-1" x="10" y="15" width="1" height="1" transform="translate(21 31) rotate(180)"/><rect class="cls-1" x="9" y="15" width="1" height="1" transform="translate(19 31) rotate(180)"/><rect class="cls-2" x="8" y="15" width="1" height="1" transform="translate(17 31) rotate(180)"/><rect class="cls-4" x="7" y="15" width="1" height="1" transform="translate(15 31) rotate(180)"/><rect class="cls-3" x="6" y="15" width="1" height="1" transform="translate(13 31) rotate(180)"/><rect class="cls-3" x="5" y="15" width="1" height="1" transform="translate(11 31) rotate(180)"/><rect class="cls-2" x="4" y="15" width="1" height="1" transform="translate(9 31) rotate(180)"/><rect class="cls-3" x="3" y="15" width="1" height="1" transform="translate(7 31) rotate(180)"/><rect class="cls-4" x="2" y="15" width="1" height="1" transform="translate(5 31) rotate(180)"/><rect class="cls-2" x="1" y="15" width="1" height="1" transform="translate(3 31) rotate(180)"/><rect class="cls-1" y="15" width="1" height="1" transform="translate(1 31) rotate(180)"/><rect class="cls-3" x="15" y="14" width="1" height="1" transform="translate(31 29) rotate(180)"/><rect class="cls-2" x="14" y="14" width="1" height="1" transform="translate(29 29) rotate(180)"/><rect class="cls-2" x="13" y="14" width="1" height="1" transform="translate(27 29) rotate(180)"/><rect class="cls-2" x="12" y="14" width="1" height="1" transform="translate(25 29) rotate(180)"/><rect class="cls-1" x="11" y="14" width="1" height="1" transform="translate(23 29) rotate(180)"/><rect class="cls-4" x="10" y="14" width="1" height="1" transform="translate(21 29) rotate(180)"/><rect class="cls-3" x="9" y="14" width="1" height="1" transform="translate(19 29) rotate(180)"/><rect class="cls-3" x="8" y="14" width="1" height="1" transform="translate(17 29) rotate(180)"/><rect class="cls-1" x="7" y="14" width="1" height="1" transform="translate(15 29) rotate(180)"/><rect class="cls-2" x="6" y="14" width="1" height="1" transform="translate(13 29) rotate(180)"/><rect class="cls-4" x="5" y="14" width="1" height="1" transform="translate(11 29) rotate(180)"/><rect class="cls-4" x="4" y="14" width="1" height="1" transform="translate(9 29) rotate(180)"/><rect class="cls-2" x="3" y="14" width="1" height="1" transform="translate(7 29) rotate(180)"/><rect class="cls-2" x="2" y="14" width="1" height="1" transform="translate(5 29) rotate(180)"/><rect class="cls-3" x="1" y="14" width="1" height="1" transform="translate(3 29) rotate(180)"/><rect class="cls-3" y="14" width="1" height="1" transform="translate(1 29) rotate(180)"/><rect class="cls-2" x="15" y="13" width="1" height="1" transform="translate(31 27) rotate(180)"/><rect class="cls-2" x="14" y="13" width="1" height="1" transform="translate(29 27) rotate(180)"/><rect class="cls-3" x="13" y="13" width="1" height="1" transform="translate(27 27) rotate(180)"/><rect class="cls-4" x="12" y="13" width="1" height="1" transform="translate(25 27) rotate(180)"/><rect class="cls-1" x="11" y="13" width="1" height="1" transform="translate(23 27) rotate(180)"/><rect class="cls-3" x="10" y="13" width="1" height="1" transform="translate(21 27) rotate(180)"/><rect class="cls-2" x="9" y="13" width="1" height="1" transform="translate(19 27) rotate(180)"/><rect class="cls-2" x="8" y="13" width="1" height="1" transform="translate(17 27) rotate(180)"/><rect class="cls-2" x="7" y="13" width="1" height="1" transform="translate(15 27) rotate(180)"/><rect class="cls-3" x="6" y="13" width="1" height="1" transform="translate(13 27) rotate(180)"/><rect class="cls-2" x="5" y="13" width="1" height="1" transform="translate(11 27) rotate(180)"/><rect class="cls-1" x="4" y="13" width="1" height="1" transform="translate(9 27) rotate(180)"/><rect class="cls-1" x="3" y="13" width="1" height="1" transform="translate(7 27) rotate(180)"/><rect class="cls-3" x="2" y="13" width="1" height="1" transform="translate(5 27) rotate(180)"/><rect class="cls-4" x="1" y="13" width="1" height="1" transform="translate(3 27) rotate(180)"/><rect class="cls-4" y="13" width="1" height="1" transform="translate(1 27) rotate(180)"/><rect class="cls-4" x="15" y="12" width="1" height="1" transform="translate(31 25) rotate(180)"/><rect class="cls-3" x="14" y="12" width="1" height="1" transform="translate(29 25) rotate(180)"/><rect class="cls-4" x="13" y="12" width="1" height="1" transform="translate(27 25) rotate(180)"/><rect class="cls-2" x="12" y="12" width="1" height="1" transform="translate(25 25) rotate(180)"/><rect class="cls-2" x="11" y="12" width="1" height="1" transform="translate(23 25) rotate(180)"/><rect class="cls-2" x="10" y="12" width="1" height="1" transform="translate(21 25) rotate(180)"/><rect class="cls-1" x="9" y="12" width="1" height="1" transform="translate(19 25) rotate(180)"/><rect class="cls-3" x="8" y="12" width="1" height="1" transform="translate(17 25) rotate(180)"/><rect class="cls-3" x="7" y="12" width="1" height="1" transform="translate(15 25) rotate(180)"/><rect class="cls-4" x="6" y="12" width="1" height="1" transform="translate(13 25) rotate(180)"/><rect class="cls-4" x="5" y="12" width="1" height="1" transform="translate(11 25) rotate(180)"/><rect class="cls-4" x="4" y="12" width="1" height="1" transform="translate(9 25) rotate(180)"/><rect class="cls-3" x="3" y="12" width="1" height="1" transform="translate(7 25) rotate(180)"/><rect class="cls-3" x="2" y="12" width="1" height="1" transform="translate(5 25) rotate(180)"/><rect class="cls-3" x="1" y="12" width="1" height="1" transform="translate(3 25) rotate(180)"/><rect class="cls-3" y="12" width="1" height="1" transform="translate(1 25) rotate(180)"/><rect class="cls-3" x="15" y="11" width="1" height="1" transform="translate(31 23) rotate(180)"/><rect class="cls-1" x="14" y="11" width="1" height="1" transform="translate(29 23) rotate(180)"/><rect class="cls-3" x="13" y="11" width="1" height="1" transform="translate(27 23) rotate(180)"/><rect class="cls-3" x="12" y="11" width="1" height="1" transform="translate(25 23) rotate(180)"/><rect class="cls-1" x="11" y="11" width="1" height="1" transform="translate(23 23) rotate(180)"/><rect class="cls-2" x="10" y="11" width="1" height="1" transform="translate(21 23) rotate(180)"/><rect class="cls-4" x="9" y="11" width="1" height="1" transform="translate(19 23) rotate(180)"/><rect class="cls-1" x="8" y="11" width="1" height="1" transform="translate(17 23) rotate(180)"/><rect class="cls-2" x="7" y="11" width="1" height="1" transform="translate(15 23) rotate(180)"/><rect class="cls-2" x="6" y="11" width="1" height="1" transform="translate(13 23) rotate(180)"/><rect class="cls-3" x="5" y="11" width="1" height="1" transform="translate(11 23) rotate(180)"/><rect class="cls-2" x="4" y="11" width="1" height="1" transform="translate(9 23) rotate(180)"/><rect class="cls-4" x="3" y="11" width="1" height="1" transform="translate(7 23) rotate(180)"/><rect class="cls-1" x="2" y="11" width="1" height="1" transform="translate(5 23) rotate(180)"/><rect class="cls-1" x="1" y="11" width="1" height="1" transform="translate(3 23) rotate(180)"/><rect class="cls-3" y="11" width="1" height="1" transform="translate(1 23) rotate(180)"/><rect class="cls-2" x="15" y="10" width="1" height="1" transform="translate(31 21) rotate(180)"/><rect class="cls-3" x="14" y="10" width="1" height="1" transform="translate(29 21) rotate(180)"/><rect class="cls-4" x="13" y="10" width="1" height="1" transform="translate(27 21) rotate(180)"/><rect class="cls-2" x="12" y="10" width="1" height="1" transform="translate(25 21) rotate(180)"/><rect class="cls-4" x="11" y="10" width="1" height="1" transform="translate(23 21) rotate(180)"/><rect class="cls-4" x="10" y="10" width="1" height="1" transform="translate(21 21) rotate(180)"/><rect class="cls-3" x="9" y="10" width="1" height="1" transform="translate(19 21) rotate(180)"/><rect class="cls-3" x="8" y="10" width="1" height="1" transform="translate(17 21) rotate(180)"/><rect class="cls-1" x="7" y="10" width="1" height="1" transform="translate(15 21) rotate(180)"/><rect class="cls-2" x="6" y="10" width="1" height="1" transform="translate(13 21) rotate(180)"/><rect class="cls-4" x="5" y="10" width="1" height="1" transform="translate(11 21) rotate(180)"/><rect class="cls-1" x="4" y="10" width="1" height="1" transform="translate(9 21) rotate(180)"/><rect class="cls-3" x="3" y="10" width="1" height="1" transform="translate(7 21) rotate(180)"/><rect class="cls-1" x="2" y="10" width="1" height="1" transform="translate(5 21) rotate(180)"/><rect class="cls-3" x="1" y="10" width="1" height="1" transform="translate(3 21) rotate(180)"/><rect class="cls-4" y="10" width="1" height="1" transform="translate(1 21) rotate(180)"/><rect class="cls-2" x="15" y="9" width="1" height="1" transform="translate(31 19) rotate(180)"/><rect class="cls-4" x="14" y="9" width="1" height="1" transform="translate(29 19) rotate(180)"/><rect class="cls-1" x="13" y="9" width="1" height="1" transform="translate(27 19) rotate(180)"/><rect class="cls-3" x="12" y="9" width="1" height="1" transform="translate(25 19) rotate(180)"/><rect class="cls-3" x="11" y="9" width="1" height="1" transform="translate(23 19) rotate(180)"/><rect class="cls-1" x="10" y="9" width="1" height="1" transform="translate(21 19) rotate(180)"/><rect class="cls-1" x="9" y="9" width="1" height="1" transform="translate(19 19) rotate(180)"/><rect class="cls-2" x="8" y="9" width="1" height="1" transform="translate(17 19) rotate(180)"/><rect class="cls-2" x="7" y="9" width="1" height="1" transform="translate(15 19) rotate(180)"/><rect class="cls-3" x="6" y="9" width="1" height="1" transform="translate(13 19) rotate(180)"/><rect class="cls-3" x="5" y="9" width="1" height="1" transform="translate(11 19) rotate(180)"/><rect class="cls-1" x="4" y="9" width="1" height="1" transform="translate(9 19) rotate(180)"/><rect class="cls-4" x="3" y="9" width="1" height="1" transform="translate(7 19) rotate(180)"/><rect class="cls-2" x="2" y="9" width="1" height="1" transform="translate(5 19) rotate(180)"/><rect class="cls-1" x="1" y="9" width="1" height="1" transform="translate(3 19) rotate(180)"/><rect class="cls-1" y="9" width="1" height="1" transform="translate(1 19) rotate(180)"/><rect class="cls-4" x="15" y="8" width="1" height="1" transform="translate(31 17) rotate(180)"/><rect class="cls-2" x="14" y="8" width="1" height="1" transform="translate(29 17) rotate(180)"/><rect class="cls-4" x="13" y="8" width="1" height="1" transform="translate(27 17) rotate(180)"/><rect class="cls-1" x="12" y="8" width="1" height="1" transform="translate(25 17) rotate(180)"/><rect class="cls-1" x="11" y="8" width="1" height="1" transform="translate(23 17) rotate(180)"/><rect class="cls-3" x="10" y="8" width="1" height="1" transform="translate(21 17) rotate(180)"/><rect class="cls-3" x="9" y="8" width="1" height="1" transform="translate(19 17) rotate(180)"/><rect class="cls-1" x="8" y="8" width="1" height="1" transform="translate(17 17) rotate(180)"/><rect class="cls-1" x="7" y="8" width="1" height="1" transform="translate(15 17) rotate(180)"/><rect class="cls-4" x="6" y="8" width="1" height="1" transform="translate(13 17) rotate(180)"/><rect class="cls-3" x="5" y="8" width="1" height="1" transform="translate(11 17) rotate(180)"/><rect class="cls-2" x="4" y="8" width="1" height="1" transform="translate(9 17) rotate(180)"/><rect class="cls-3" x="3" y="8" width="1" height="1" transform="translate(7 17) rotate(180)"/><rect class="cls-1" x="2" y="8" width="1" height="1" transform="translate(5 17) rotate(180)"/><rect class="cls-3" x="1" y="8" width="1" height="1" transform="translate(3 17) rotate(180)"/><rect class="cls-4" y="8" width="1" height="1" transform="translate(1 17) rotate(180)"/><rect class="cls-4" x="15" y="7" width="1" height="1" transform="translate(31 15) rotate(180)"/><rect class="cls-2" x="14" y="7" width="1" height="1" transform="translate(29 15) rotate(180)"/><rect class="cls-2" x="13" y="7" width="1" height="1" transform="translate(27 15) rotate(180)"/><rect class="cls-1" x="12" y="7" width="1" height="1" transform="translate(25 15) rotate(180)"/><rect class="cls-4" x="11" y="7" width="1" height="1" transform="translate(23 15) rotate(180)"/><rect class="cls-4" x="10" y="7" width="1" height="1" transform="translate(21 15) rotate(180)"/><rect class="cls-4" x="9" y="7" width="1" height="1" transform="translate(19 15) rotate(180)"/><rect class="cls-4" x="8" y="7" width="1" height="1" transform="translate(17 15) rotate(180)"/><rect class="cls-1" x="7" y="7" width="1" height="1" transform="translate(15 15) rotate(180)"/><rect class="cls-1" x="6" y="7" width="1" height="1" transform="translate(13 15) rotate(180)"/><rect class="cls-3" x="5" y="7" width="1" height="1" transform="translate(11 15) rotate(180)"/><rect class="cls-3" x="4" y="7" width="1" height="1" transform="translate(9 15) rotate(180)"/><rect class="cls-3" x="3" y="7" width="1" height="1" transform="translate(7 15) rotate(180)"/><rect class="cls-4" x="2" y="7" width="1" height="1" transform="translate(5 15) rotate(180)"/><rect class="cls-4" x="1" y="7" width="1" height="1" transform="translate(3 15) rotate(180)"/><rect class="cls-1" y="7" width="1" height="1" transform="translate(1 15) rotate(180)"/><rect class="cls-4" x="15" y="6" width="1" height="1" transform="translate(31 13) rotate(180)"/><rect class="cls-1" x="14" y="6" width="1" height="1" transform="translate(29 13) rotate(180)"/><rect class="cls-2" x="13" y="6" width="1" height="1" transform="translate(27 13) rotate(180)"/><rect class="cls-4" x="12" y="6" width="1" height="1" transform="translate(25 13) rotate(180)"/><rect class="cls-4" x="11" y="6" width="1" height="1" transform="translate(23 13) rotate(180)"/><rect class="cls-3" x="10" y="6" width="1" height="1" transform="translate(21 13) rotate(180)"/><rect class="cls-4" x="9" y="6" width="1" height="1" transform="translate(19 13) rotate(180)"/><rect class="cls-1" x="8" y="6" width="1" height="1" transform="translate(17 13) rotate(180)"/><rect class="cls-3" x="7" y="6" width="1" height="1" transform="translate(15 13) rotate(180)"/><rect class="cls-3" x="6" y="6" width="1" height="1" transform="translate(13 13) rotate(180)"/><rect class="cls-2" x="5" y="6" width="1" height="1" transform="translate(11 13) rotate(180)"/><rect class="cls-4" x="4" y="6" width="1" height="1" transform="translate(9 13) rotate(180)"/><rect class="cls-4" x="3" y="6" width="1" height="1" transform="translate(7 13) rotate(180)"/><rect class="cls-3" x="2" y="6" width="1" height="1" transform="translate(5 13) rotate(180)"/><rect class="cls-4" x="1" y="6" width="1" height="1" transform="translate(3 13) rotate(180)"/><rect class="cls-1" y="6" width="1" height="1" transform="translate(1 13) rotate(180)"/><rect class="cls-2" x="15" y="5" width="1" height="1" transform="translate(31 11) rotate(180)"/><rect class="cls-2" x="14" y="5" width="1" height="1" transform="translate(29 11) rotate(180)"/><rect class="cls-1" x="13" y="5" width="1" height="1" transform="translate(27 11) rotate(180)"/><rect class="cls-3" x="12" y="5" width="1" height="1" transform="translate(25 11) rotate(180)"/><rect class="cls-1" x="11" y="5" width="1" height="1" transform="translate(23 11) rotate(180)"/><rect class="cls-3" x="10" y="5" width="1" height="1" transform="translate(21 11) rotate(180)"/><rect class="cls-1" x="9" y="5" width="1" height="1" transform="translate(19 11) rotate(180)"/><rect class="cls-3" x="8" y="5" width="1" height="1" transform="translate(17 11) rotate(180)"/><rect class="cls-1" x="7" y="5" width="1" height="1" transform="translate(15 11) rotate(180)"/><rect class="cls-4" x="6" y="5" width="1" height="1" transform="translate(13 11) rotate(180)"/><rect class="cls-3" x="5" y="5" width="1" height="1" transform="translate(11 11) rotate(180)"/><rect class="cls-3" x="4" y="5" width="1" height="1" transform="translate(9 11) rotate(180)"/><rect class="cls-4" x="3" y="5" width="1" height="1" transform="translate(7 11) rotate(180)"/><rect class="cls-1" x="2" y="5" width="1" height="1" transform="translate(5 11) rotate(180)"/><rect class="cls-3" x="1" y="5" width="1" height="1" transform="translate(3 11) rotate(180)"/><rect class="cls-4" y="5" width="1" height="1" transform="translate(1 11) rotate(180)"/><rect class="cls-2" x="15" y="4" width="1" height="1" transform="translate(31 9) rotate(180)"/><rect class="cls-4" x="14" y="4" width="1" height="1" transform="translate(29 9) rotate(180)"/><rect class="cls-2" x="13" y="4" width="1" height="1" transform="translate(27 9) rotate(180)"/><rect class="cls-2" x="12" y="4" width="1" height="1" transform="translate(25 9) rotate(180)"/><rect class="cls-4" x="11" y="4" width="1" height="1" transform="translate(23 9) rotate(180)"/><rect class="cls-4" x="10" y="4" width="1" height="1" transform="translate(21 9) rotate(180)"/><rect class="cls-4" x="9" y="4" width="1" height="1" transform="translate(19 9) rotate(180)"/><rect class="cls-4" x="8" y="4" width="1" height="1" transform="translate(17 9) rotate(180)"/><rect class="cls-4" x="7" y="4" width="1" height="1" transform="translate(15 9) rotate(180)"/><rect class="cls-2" x="6" y="4" width="1" height="1" transform="translate(13 9) rotate(180)"/><rect class="cls-1" x="5" y="4" width="1" height="1" transform="translate(11 9) rotate(180)"/><rect class="cls-3" x="4" y="4" width="1" height="1" transform="translate(9 9) rotate(180)"/><rect class="cls-1" x="3" y="4" width="1" height="1" transform="translate(7 9) rotate(180)"/><rect class="cls-1" x="2" y="4" width="1" height="1" transform="translate(5 9) rotate(180)"/><rect class="cls-3" x="1" y="4" width="1" height="1" transform="translate(3 9) rotate(180)"/><rect class="cls-2" y="4" width="1" height="1" transform="translate(1 9) rotate(180)"/><rect class="cls-3" x="15" y="3" width="1" height="1" transform="translate(31 7) rotate(180)"/><rect class="cls-4" x="14" y="3" width="1" height="1" transform="translate(29 7) rotate(180)"/><rect class="cls-1" x="13" y="3" width="1" height="1" transform="translate(27 7) rotate(180)"/><rect class="cls-4" x="12" y="3" width="1" height="1" transform="translate(25 7) rotate(180)"/><rect class="cls-2" x="11" y="3" width="1" height="1" transform="translate(23 7) rotate(180)"/><rect class="cls-4" x="10" y="3" width="1" height="1" transform="translate(21 7) rotate(180)"/><rect class="cls-1" x="9" y="3" width="1" height="1" transform="translate(19 7) rotate(180)"/><rect class="cls-4" x="8" y="3" width="1" height="1" transform="translate(17 7) rotate(180)"/><rect class="cls-1" x="7" y="3" width="1" height="1" transform="translate(15 7) rotate(180)"/><rect class="cls-1" x="6" y="3" width="1" height="1" transform="translate(13 7) rotate(180)"/><rect class="cls-2" x="5" y="3" width="1" height="1" transform="translate(11 7) rotate(180)"/><rect class="cls-1" x="4" y="3" width="1" height="1" transform="translate(9 7) rotate(180)"/><rect class="cls-3" x="3" y="3" width="1" height="1" transform="translate(7 7) rotate(180)"/><rect class="cls-3" x="2" y="3" width="1" height="1" transform="translate(5 7) rotate(180)"/><rect class="cls-2" x="1" y="3" width="1" height="1" transform="translate(3 7) rotate(180)"/><rect class="cls-2" y="3" width="1" height="1" transform="translate(1 7) rotate(180)"/><rect class="cls-1" x="15" y="2" width="1" height="1" transform="translate(31 5) rotate(180)"/><rect class="cls-4" x="14" y="2" width="1" height="1" transform="translate(29 5) rotate(180)"/><rect class="cls-2" x="13" y="2" width="1" height="1" transform="translate(27 5) rotate(180)"/><rect class="cls-1" x="12" y="2" width="1" height="1" transform="translate(25 5) rotate(180)"/><rect class="cls-1" x="11" y="2" width="1" height="1" transform="translate(23 5) rotate(180)"/><rect class="cls-2" x="10" y="2" width="1" height="1" transform="translate(21 5) rotate(180)"/><rect class="cls-2" x="9" y="2" width="1" height="1" transform="translate(19 5) rotate(180)"/><rect class="cls-3" x="8" y="2" width="1" height="1" transform="translate(17 5) rotate(180)"/><rect class="cls-4" x="7" y="2" width="1" height="1" transform="translate(15 5) rotate(180)"/><rect class="cls-3" x="6" y="2" width="1" height="1" transform="translate(13 5) rotate(180)"/><rect class="cls-1" x="5" y="2" width="1" height="1" transform="translate(11 5) rotate(180)"/><rect class="cls-3" x="4" y="2" width="1" height="1" transform="translate(9 5) rotate(180)"/><rect class="cls-1" x="3" y="2" width="1" height="1" transform="translate(7 5) rotate(180)"/><rect class="cls-1" x="2" y="2" width="1" height="1" transform="translate(5 5) rotate(180)"/><rect class="cls-4" x="1" y="2" width="1" height="1" transform="translate(3 5) rotate(180)"/><rect class="cls-3" y="2" width="1" height="1" transform="translate(1 5) rotate(180)"/><rect class="cls-2" x="15" y="1" width="1" height="1" transform="translate(31 3) rotate(180)"/><rect class="cls-1" x="14" y="1" width="1" height="1" transform="translate(29 3) rotate(180)"/><rect class="cls-2" x="13" y="1" width="1" height="1" transform="translate(27 3) rotate(180)"/><rect class="cls-1" x="12" y="1" width="1" height="1" transform="translate(25 3) rotate(180)"/><rect class="cls-3" x="11" y="1" width="1" height="1" transform="translate(23 3) rotate(180)"/><rect class="cls-1" x="10" y="1" width="1" height="1" transform="translate(21 3) rotate(180)"/><rect class="cls-2" x="9" y="1" width="1" height="1" transform="translate(19 3) rotate(180)"/><rect class="cls-2" x="8" y="1" width="1" height="1" transform="translate(17 3) rotate(180)"/><rect class="cls-3" x="7" y="1" width="1" height="1" transform="translate(15 3) rotate(180)"/><rect class="cls-2" x="6" y="1" width="1" height="1" transform="translate(13 3) rotate(180)"/><rect class="cls-1" x="5" y="1" width="1" height="1" transform="translate(11 3) rotate(180)"/><rect class="cls-4" x="4" y="1" width="1" height="1" transform="translate(9 3) rotate(180)"/><rect class="cls-4" x="3" y="1" width="1" height="1" transform="translate(7 3) rotate(180)"/><rect class="cls-1" x="2" y="1" width="1" height="1" transform="translate(5 3) rotate(180)"/><rect class="cls-3" x="1" y="1" width="1" height="1" transform="translate(3 3) rotate(180)"/><rect class="cls-3" y="1" width="1" height="1" transform="translate(1 3) rotate(180)"/><rect class="cls-1" x="15" width="1" height="1" transform="translate(31 1) rotate(180)"/><rect class="cls-2" x="14" width="1" height="1" transform="translate(29 1) rotate(180)"/><rect class="cls-1" x="13" width="1" height="1" transform="translate(27 1) rotate(180)"/><rect class="cls-3" x="12" width="1" height="1" transform="translate(25 1) rotate(180)"/><rect class="cls-1" x="11" width="1" height="1" transform="translate(23 1) rotate(180)"/><rect class="cls-3" x="10" width="1" height="1" transform="translate(21 1) rotate(180)"/><rect class="cls-3" x="9" width="1" height="1" transform="translate(19 1) rotate(180)"/><rect class="cls-2" x="8" width="1" height="1" transform="translate(17 1) rotate(180)"/><rect class="cls-3" x="7" width="1" height="1" transform="translate(15 1) rotate(180)"/><rect class="cls-2" x="6" width="1" height="1" transform="translate(13 1) rotate(180)"/><rect class="cls-1" x="5" width="1" height="1" transform="translate(11 1) rotate(180)"/><rect class="cls-2" x="4" width="1" height="1" transform="translate(9 1) rotate(180)"/><rect class="cls-3" x="3" width="1" height="1" transform="translate(7 1) rotate(180)"/><rect class="cls-2" x="2" width="1" height="1" transform="translate(5 1) rotate(180)"/><rect class="cls-4" x="1" width="1" height="1" transform="translate(3 1) rotate(180)"/><rect class="cls-4" width="1" height="1" transform="translate(1 1) rotate(180)"/></svg>