<svg id="Layer_1" data-name="Layer 1" xmlns="http://www.w3.org/2000/svg" viewBox="0 0 16 16"><defs><style>.cls-1{fill:#ec6143;}.cls-2{fill:#bb3334;}.cls-3{fill:#6a1f31;}.cls-4{fill:#3b1829;}</style></defs><rect class="cls-1" x="15" width="1" height="1" transform="translate(16 -15) rotate(90)"/><rect class="cls-2" x="15" y="1" width="1" height="1" transform="translate(17 -14) rotate(90)"/><rect class="cls-3" x="15" y="2" width="1" height="1" transform="translate(18 -13) rotate(90)"/><rect class="cls-1" x="15" y="3" width="1" height="1" transform="translate(19 -12) rotate(90)"/><rect class="cls-3" x="15" y="4" width="1" height="1" transform="translate(20 -11) rotate(90)"/><rect class="cls-2" x="15" y="5" width="1" height="1" transform="translate(21 -10) rotate(90)"/><rect class="cls-2" x="15" y="6" width="1" height="1" transform="translate(22 -9) rotate(90)"/><rect class="cls-4" x="15" y="7" width="1" height="1" transform="translate(23 -8) rotate(90)"/><rect class="cls-3" x="15" y="8" width="1" height="1" transform="translate(24 -7) rotate(90)"/><rect class="cls-1" x="15" y="9" width="1" height="1" transform="translate(25 -6) rotate(90)"/><rect class="cls-1" x="15" y="10" width="1" height="1" transform="translate(26 -5) rotate(90)"/><rect class="cls-4" x="15" y="11" width="1" height="1" transform="translate(27 -4) rotate(90)"/><rect class="cls-3" x="15" y="12" width="1" height="1" transform="translate(28 -3) rotate(90)"/><rect class="cls-3" x="15" y="13" width="1" height="1" transform="translate(29 -2) rotate(90)"/><rect class="cls-4" x="15" y="14" width="1" height="1" transform="translate(30 -1) rotate(90)"/><rect class="cls-2" x="15" y="15" width="1" height="1" transform="translate(31 0) rotate(90)"/><rect class="cls-3" x="14" width="1" height="1" transform="translate(15 -14) rotate(90)"/><rect class="cls-2" x="14" y="1" width="1" height="1" transform="translate(16 -13) rotate(90)"/><rect class="cls-2" x="14" y="2" width="1" height="1" transform="translate(17 -12) rotate(90)"/><rect class="cls-2" x="14" y="3" width="1" height="1" transform="translate(18 -11) rotate(90)"/><rect class="cls-1" x="14" y="4" width="1" height="1" transform="translate(19 -10) rotate(90)"/><rect class="cls-3" x="14" y="5" width="1" height="1" transform="translate(20 -9) rotate(90)"/><rect class="cls-1" x="14" y="6" width="1" height="1" transform="translate(21 -8) rotate(90)"/><rect class="cls-1" x="14" y="7" width="1" height="1" transform="translate(22 -7) rotate(90)"/><rect class="cls-2" x="14" y="8" width="1" height="1" transform="translate(23 -6) rotate(90)"/><rect class="cls-4" x="14" y="9" width="1" height="1" transform="translate(24 -5) rotate(90)"/><rect class="cls-3" x="14" y="10" width="1" height="1" transform="translate(25 -4) rotate(90)"/><rect class="cls-3" x="14" y="11" width="1" height="1" transform="translate(26 -3) rotate(90)"/><rect class="cls-4" x="14" y="12" width="1" height="1" transform="translate(27 -2) rotate(90)"/><rect class="cls-4" x="14" y="13" width="1" height="1" transform="translate(28 -1) rotate(90)"/><rect class="cls-1" x="14" y="14" width="1" height="1" transform="translate(29) rotate(90)"/><rect class="cls-1" x="14" y="15" width="1" height="1" transform="translate(30 1) rotate(90)"/><rect class="cls-2" x="13" width="1" height="1" transform="translate(14 -13) rotate(90)"/><rect class="cls-2" x="13" y="1" width="1" height="1" transform="translate(15 -12) rotate(90)"/><rect class="cls-3" x="13" y="2" width="1" height="1" transform="translate(16 -11) rotate(90)"/><rect class="cls-4" x="13" y="3" width="1" height="1" transform="translate(17 -10) rotate(90)"/><rect class="cls-1" x="13" y="4" width="1" height="1" transform="translate(18 -9) rotate(90)"/><rect class="cls-3" x="13" y="5" width="1" height="1" transform="translate(19 -8) rotate(90)"/><rect class="cls-4" x="13" y="6" width="1" height="1" transform="translate(20 -7) rotate(90)"/><rect class="cls-4" x="13" y="7" width="1" height="1" transform="translate(21 -6) rotate(90)"/><rect class="cls-4" x="13" y="8" width="1" height="1" transform="translate(22 -5) rotate(90)"/><rect class="cls-1" x="13" y="9" width="1" height="1" transform="translate(23 -4) rotate(90)"/><rect class="cls-4" x="13" y="10" width="1" height="1" transform="translate(24 -3) rotate(90)"/><rect class="cls-2" x="13" y="11" width="1" height="1" transform="translate(25 -2) rotate(90)"/><rect class="cls-2" x="13" y="12" width="1" height="1" transform="translate(26 -1) rotate(90)"/><rect class="cls-1" x="13" y="13" width="1" height="1" transform="translate(27) rotate(90)"/><rect class="cls-3" x="13" y="14" width="1" height="1" transform="translate(28 1) rotate(90)"/><rect class="cls-3" x="13" y="15" width="1" height="1" transform="translate(29 2) rotate(90)"/><rect class="cls-4" x="12" width="1" height="1" transform="translate(13 -12) rotate(90)"/><rect class="cls-3" x="12" y="1" width="1" height="1" transform="translate(14 -11) rotate(90)"/><rect class="cls-4" x="12" y="2" width="1" height="1" transform="translate(15 -10) rotate(90)"/><rect class="cls-2" x="12" y="3" width="1" height="1" transform="translate(16 -9) rotate(90)"/><rect class="cls-2" x="12" y="4" width="1" height="1" transform="translate(17 -8) rotate(90)"/><rect class="cls-2" x="12" y="5" width="1" height="1" transform="translate(18 -7) rotate(90)"/><rect class="cls-1" x="12" y="6" width="1" height="1" transform="translate(19 -6) rotate(90)"/><rect class="cls-1" x="12" y="7" width="1" height="1" transform="translate(20 -5) rotate(90)"/><rect class="cls-1" x="12" y="8" width="1" height="1" transform="translate(21 -4) rotate(90)"/><rect class="cls-3" x="12" y="9" width="1" height="1" transform="translate(22 -3) rotate(90)"/><rect class="cls-3" x="12" y="10" width="1" height="1" transform="translate(23 -2) rotate(90)"/><rect class="cls-3" x="12" y="11" width="1" height="1" transform="translate(24 -1) rotate(90)"/><rect class="cls-1" x="12" y="12" width="1" height="1" transform="translate(25) rotate(90)"/><rect class="cls-1" x="12" y="13" width="1" height="1" transform="translate(26 1) rotate(90)"/><rect class="cls-1" x="12" y="14" width="1" height="1" transform="translate(27 2) rotate(90)"/><rect class="cls-1" x="12" y="15" width="1" height="1" transform="translate(28 3) rotate(90)"/><rect class="cls-3" x="11" width="1" height="1" transform="translate(12 -11) rotate(90)"/><rect class="cls-1" x="11" y="1" width="1" height="1" transform="translate(13 -10) rotate(90)"/><rect class="cls-3" x="11" y="2" width="1" height="1" transform="translate(14 -9) rotate(90)"/><rect class="cls-3" x="11" y="3" width="1" height="1" transform="translate(15 -8) rotate(90)"/><rect class="cls-1" x="11" y="4" width="1" height="1" transform="translate(16 -7) rotate(90)"/><rect class="cls-2" x="11" y="5" width="1" height="1" transform="translate(17 -6) rotate(90)"/><rect class="cls-4" x="11" y="6" width="1" height="1" transform="translate(18 -5) rotate(90)"/><rect class="cls-2" x="11" y="7" width="1" height="1" transform="translate(19 -4) rotate(90)"/><rect class="cls-4" x="11" y="8" width="1" height="1" transform="translate(20 -3) rotate(90)"/><rect class="cls-4" x="11" y="9" width="1" height="1" transform="translate(21 -2) rotate(90)"/><rect class="cls-1" x="11" y="10" width="1" height="1" transform="translate(22 -1) rotate(90)"/><rect class="cls-4" x="11" y="11" width="1" height="1" transform="translate(23) rotate(90)"/><rect class="cls-3" x="11" y="12" width="1" height="1" transform="translate(24 1) rotate(90)"/><rect class="cls-2" x="11" y="13" width="1" height="1" transform="translate(25 2) rotate(90)"/><rect class="cls-2" x="11" y="14" width="1" height="1" transform="translate(26 3) rotate(90)"/><rect class="cls-1" x="11" y="15" width="1" height="1" transform="translate(27 4) rotate(90)"/><rect class="cls-2" x="10" width="1" height="1" transform="translate(11 -10) rotate(90)"/><rect class="cls-3" x="10" y="1" width="1" height="1" transform="translate(12 -9) rotate(90)"/><rect class="cls-4" x="10" y="2" width="1" height="1" transform="translate(13 -8) rotate(90)"/><rect class="cls-2" x="10" y="3" width="1" height="1" transform="translate(14 -7) rotate(90)"/><rect class="cls-4" x="10" y="4" width="1" height="1" transform="translate(15 -6) rotate(90)"/><rect class="cls-4" x="10" y="5" width="1" height="1" transform="translate(16 -5) rotate(90)"/><rect class="cls-1" x="10" y="6" width="1" height="1" transform="translate(17 -4) rotate(90)"/><rect class="cls-1" x="10" y="7" width="1" height="1" transform="translate(18 -3) rotate(90)"/><rect class="cls-2" x="10" y="8" width="1" height="1" transform="translate(19 -2) rotate(90)"/><rect class="cls-4" x="10" y="9" width="1" height="1" transform="translate(20 -1) rotate(90)"/><rect class="cls-3" x="10" y="10" width="1" height="1" transform="translate(21) rotate(90)"/><rect class="cls-2" x="10" y="11" width="1" height="1" transform="translate(22 1) rotate(90)"/><rect class="cls-1" x="10" y="12" width="1" height="1" transform="translate(23 2) rotate(90)"/><rect class="cls-2" x="10" y="13" width="1" height="1" transform="translate(24 3) rotate(90)"/><rect class="cls-1" x="10" y="14" width="1" height="1" transform="translate(25 4) rotate(90)"/><rect class="cls-3" x="10" y="15" width="1" height="1" transform="translate(26 5) rotate(90)"/><rect class="cls-2" x="9" width="1" height="1" transform="translate(10 -9) rotate(90)"/><rect class="cls-4" x="9" y="1" width="1" height="1" transform="translate(11 -8) rotate(90)"/><rect class="cls-1" x="9" y="2" width="1" height="1" transform="translate(12 -7) rotate(90)"/><rect class="cls-3" x="9" y="3" width="1" height="1" transform="translate(13 -6) rotate(90)"/><rect class="cls-3" x="9" y="4" width="1" height="1" transform="translate(14 -5) rotate(90)"/><rect class="cls-1" x="9" y="5" width="1" height="1" transform="translate(15 -4) rotate(90)"/><rect class="cls-2" x="9" y="6" width="1" height="1" transform="translate(16 -3) rotate(90)"/><rect class="cls-4" x="9" y="7" width="1" height="1" transform="translate(17 -2) rotate(90)"/><rect class="cls-2" x="9" y="8" width="1" height="1" transform="translate(18 -1) rotate(90)"/><rect class="cls-1" x="9" y="9" width="1" height="1" transform="translate(19) rotate(90)"/><rect class="cls-1" x="9" y="10" width="1" height="1" transform="translate(20 1) rotate(90)"/><rect class="cls-2" x="9" y="11" width="1" height="1" transform="translate(21 2) rotate(90)"/><rect class="cls-3" x="9" y="12" width="1" height="1" transform="translate(22 3) rotate(90)"/><rect class="cls-4" x="9" y="13" width="1" height="1" transform="translate(23 4) rotate(90)"/><rect class="cls-2" x="9" y="14" width="1" height="1" transform="translate(24 5) rotate(90)"/><rect class="cls-2" x="9" y="15" width="1" height="1" transform="translate(25 6) rotate(90)"/><rect class="cls-4" x="8" width="1" height="1" transform="translate(9 -8) rotate(90)"/><rect class="cls-2" x="8" y="1" width="1" height="1" transform="translate(10 -7) rotate(90)"/><rect class="cls-2" x="8" y="2" width="1" height="1" transform="translate(11 -6) rotate(90)"/><rect class="cls-1" x="8" y="3" width="1" height="1" transform="translate(12 -5) rotate(90)"/><rect class="cls-2" x="8" y="4" width="1" height="1" transform="translate(13 -4) rotate(90)"/><rect class="cls-3" x="8" y="5" width="1" height="1" transform="translate(14 -3) rotate(90)"/><rect class="cls-3" x="8" y="6" width="1" height="1" transform="translate(15 -2) rotate(90)"/><rect class="cls-2" x="8" y="7" width="1" height="1" transform="translate(16 -1) rotate(90)"/><rect class="cls-2" x="8" y="8" width="1" height="1" transform="translate(17) rotate(90)"/><rect class="cls-3" x="8" y="9" width="1" height="1" transform="translate(18 1) rotate(90)"/><rect class="cls-1" x="8" y="10" width="1" height="1" transform="translate(19 2) rotate(90)"/><rect class="cls-4" x="8" y="11" width="1" height="1" transform="translate(20 3) rotate(90)"/><rect class="cls-1" x="8" y="12" width="1" height="1" transform="translate(21 4) rotate(90)"/><rect class="cls-2" x="8" y="13" width="1" height="1" transform="translate(22 5) rotate(90)"/><rect class="cls-1" x="8" y="14" width="1" height="1" transform="translate(23 6) rotate(90)"/><rect class="cls-3" x="8" y="15" width="1" height="1" transform="translate(24 7) rotate(90)"/><rect class="cls-4" x="7" width="1" height="1" transform="translate(8 -7) rotate(90)"/><rect class="cls-2" x="7" y="1" width="1" height="1" transform="translate(9 -6) rotate(90)"/><rect class="cls-2" x="7" y="2" width="1" height="1" transform="translate(10 -5) rotate(90)"/><rect class="cls-1" x="7" y="3" width="1" height="1" transform="translate(11 -4) rotate(90)"/><rect class="cls-3" x="7" y="4" width="1" height="1" transform="translate(12 -3) rotate(90)"/><rect class="cls-3" x="7" y="5" width="1" height="1" transform="translate(13 -2) rotate(90)"/><rect class="cls-3" x="7" y="6" width="1" height="1" transform="translate(14 -1) rotate(90)"/><rect class="cls-3" x="7" y="7" width="1" height="1" transform="translate(15 0) rotate(90)"/><rect class="cls-2" x="7" y="8" width="1" height="1" transform="translate(16 1) rotate(90)"/><rect class="cls-2" x="7" y="9" width="1" height="1" transform="translate(17 2) rotate(90)"/><rect class="cls-1" x="7" y="10" width="1" height="1" transform="translate(18 3) rotate(90)"/><rect class="cls-1" x="7" y="11" width="1" height="1" transform="translate(19 4) rotate(90)"/><rect class="cls-1" x="7" y="12" width="1" height="1" transform="translate(20 5) rotate(90)"/><rect class="cls-3" x="7" y="13" width="1" height="1" transform="translate(21 6) rotate(90)"/><rect class="cls-3" x="7" y="14" width="1" height="1" transform="translate(22 7) rotate(90)"/><rect class="cls-2" x="7" y="15" width="1" height="1" transform="translate(23 8) rotate(90)"/><rect class="cls-4" x="6" width="1" height="1" transform="translate(7 -6) rotate(90)"/><rect class="cls-1" x="6" y="1" width="1" height="1" transform="translate(8 -5) rotate(90)"/><rect class="cls-2" x="6" y="2" width="1" height="1" transform="translate(9 -4) rotate(90)"/><rect class="cls-4" x="6" y="3" width="1" height="1" transform="translate(10 -3) rotate(90)"/><rect class="cls-4" x="6" y="4" width="1" height="1" transform="translate(11 -2) rotate(90)"/><rect class="cls-3" x="6" y="5" width="1" height="1" transform="translate(12 -1) rotate(90)"/><rect class="cls-3" x="6" y="6" width="1" height="1" transform="translate(13) rotate(90)"/><rect class="cls-2" x="6" y="7" width="1" height="1" transform="translate(14 1) rotate(90)"/><rect class="cls-1" x="6" y="8" width="1" height="1" transform="translate(15 2) rotate(90)"/><rect class="cls-1" x="6" y="9" width="1" height="1" transform="translate(16 3) rotate(90)"/><rect class="cls-4" x="6" y="10" width="1" height="1" transform="translate(17 4) rotate(90)"/><rect class="cls-3" x="6" y="11" width="1" height="1" transform="translate(18 5) rotate(90)"/><rect class="cls-3" x="6" y="12" width="1" height="1" transform="translate(19 6) rotate(90)"/><rect class="cls-1" x="6" y="13" width="1" height="1" transform="translate(20 7) rotate(90)"/><rect class="cls-3" x="6" y="14" width="1" height="1" transform="translate(21 8) rotate(90)"/><rect class="cls-2" x="6" y="15" width="1" height="1" transform="translate(22 9) rotate(90)"/><rect class="cls-2" x="5" width="1" height="1" transform="translate(6 -5) rotate(90)"/><rect class="cls-2" x="5" y="1" width="1" height="1" transform="translate(7 -4) rotate(90)"/><rect class="cls-1" x="5" y="2" width="1" height="1" transform="translate(8 -3) rotate(90)"/><rect class="cls-3" x="5" y="3" width="1" height="1" transform="translate(9 -2) rotate(90)"/><rect class="cls-1" x="5" y="4" width="1" height="1" transform="translate(10 -1) rotate(90)"/><rect class="cls-1" x="5" y="5" width="1" height="1" transform="translate(11) rotate(90)"/><rect class="cls-2" x="5" y="6" width="1" height="1" transform="translate(12 1) rotate(90)"/><rect class="cls-1" x="5" y="7" width="1" height="1" transform="translate(13 2) rotate(90)"/><rect class="cls-2" x="5" y="8" width="1" height="1" transform="translate(14 3) rotate(90)"/><rect class="cls-3" x="5" y="9" width="1" height="1" transform="translate(15 4) rotate(90)"/><rect class="cls-1" x="5" y="10" width="1" height="1" transform="translate(16 5) rotate(90)"/><rect class="cls-1" x="5" y="11" width="1" height="1" transform="translate(17 6) rotate(90)"/><rect class="cls-3" x="5" y="12" width="1" height="1" transform="translate(18 7) rotate(90)"/><rect class="cls-2" x="5" y="13" width="1" height="1" transform="translate(19 8) rotate(90)"/><rect class="cls-1" x="5" y="14" width="1" height="1" transform="translate(20 9) rotate(90)"/><rect class="cls-3" x="5" y="15" width="1" height="1" transform="translate(21 10) rotate(90)"/><rect class="cls-2" x="4" width="1" height="1" transform="translate(5 -4) rotate(90)"/><rect class="cls-4" x="4" y="1" width="1" height="1" transform="translate(6 -3) rotate(90)"/><rect class="cls-2" x="4" y="2" width="1" height="1" transform="translate(7 -2) rotate(90)"/><rect class="cls-2" x="4" y="3" width="1" height="1" transform="translate(8 -1) rotate(90)"/><rect class="cls-4" x="4" y="4" width="1" height="1" transform="translate(9) rotate(90)"/><rect class="cls-3" x="4" y="5" width="1" height="1" transform="translate(10 1) rotate(90)"/><rect class="cls-3" x="4" y="6" width="1" height="1" transform="translate(11 2) rotate(90)"/><rect class="cls-3" x="4" y="7" width="1" height="1" transform="translate(12 3) rotate(90)"/><rect class="cls-3" x="4" y="8" width="1" height="1" transform="translate(13 4) rotate(90)"/><rect class="cls-4" x="4" y="9" width="1" height="1" transform="translate(14 5) rotate(90)"/><rect class="cls-2" x="4" y="10" width="1" height="1" transform="translate(15 6) rotate(90)"/><rect class="cls-1" x="4" y="11" width="1" height="1" transform="translate(16 7) rotate(90)"/><rect class="cls-2" x="4" y="12" width="1" height="1" transform="translate(17 8) rotate(90)"/><rect class="cls-2" x="4" y="13" width="1" height="1" transform="translate(18 9) rotate(90)"/><rect class="cls-1" x="4" y="14" width="1" height="1" transform="translate(19 10) rotate(90)"/><rect class="cls-4" x="4" y="15" width="1" height="1" transform="translate(20 11) rotate(90)"/><rect class="cls-3" x="3" width="1" height="1" transform="translate(4 -3) rotate(90)"/><rect class="cls-4" x="3" y="1" width="1" height="1" transform="translate(5 -2) rotate(90)"/><rect class="cls-1" x="3" y="2" width="1" height="1" transform="translate(6 -1) rotate(90)"/><rect class="cls-4" x="3" y="3" width="1" height="1" transform="translate(7) rotate(90)"/><rect class="cls-2" x="3" y="4" width="1" height="1" transform="translate(8 1) rotate(90)"/><rect class="cls-4" x="3" y="5" width="1" height="1" transform="translate(9 2) rotate(90)"/><rect class="cls-2" x="3" y="6" width="1" height="1" transform="translate(10 3) rotate(90)"/><rect class="cls-3" x="3" y="7" width="1" height="1" transform="translate(11 4) rotate(90)"/><rect class="cls-2" x="3" y="8" width="1" height="1" transform="translate(12 5) rotate(90)"/><rect class="cls-2" x="3" y="9" width="1" height="1" transform="translate(13 6) rotate(90)"/><rect class="cls-4" x="3" y="10" width="1" height="1" transform="translate(14 7) rotate(90)"/><rect class="cls-2" x="3" y="11" width="1" height="1" transform="translate(15 8) rotate(90)"/><rect class="cls-1" x="3" y="12" width="1" height="1" transform="translate(16 9) rotate(90)"/><rect class="cls-1" x="3" y="13" width="1" height="1" transform="translate(17 10) rotate(90)"/><rect class="cls-4" x="3" y="14" width="1" height="1" transform="translate(18 11) rotate(90)"/><rect class="cls-4" x="3" y="15" width="1" height="1" transform="translate(19 12) rotate(90)"/><rect class="cls-1" x="2" width="1" height="1" transform="translate(3 -2) rotate(90)"/><rect class="cls-4" x="2" y="1" width="1" height="1" transform="translate(4 -1) rotate(90)"/><rect class="cls-2" x="2" y="2" width="1" height="1" transform="translate(5) rotate(90)"/><rect class="cls-1" x="2" y="3" width="1" height="1" transform="translate(6 1) rotate(90)"/><rect class="cls-1" x="2" y="4" width="1" height="1" transform="translate(7 2) rotate(90)"/><rect class="cls-2" x="2" y="5" width="1" height="1" transform="translate(8 3) rotate(90)"/><rect class="cls-3" x="2" y="6" width="1" height="1" transform="translate(9 4) rotate(90)"/><rect class="cls-1" x="2" y="7" width="1" height="1" transform="translate(10 5) rotate(90)"/><rect class="cls-3" x="2" y="8" width="1" height="1" transform="translate(11 6) rotate(90)"/><rect class="cls-1" x="2" y="9" width="1" height="1" transform="translate(12 7) rotate(90)"/><rect class="cls-2" x="2" y="10" width="1" height="1" transform="translate(13 8) rotate(90)"/><rect class="cls-1" x="2" y="11" width="1" height="1" transform="translate(14 9) rotate(90)"/><rect class="cls-2" x="2" y="12" width="1" height="1" transform="translate(15 10) rotate(90)"/><rect class="cls-2" x="2" y="13" width="1" height="1" transform="translate(16 11) rotate(90)"/><rect class="cls-3" x="2" y="14" width="1" height="1" transform="translate(17 12) rotate(90)"/><rect class="cls-1" x="2" y="15" width="1" height="1" transform="translate(18 13) rotate(90)"/><rect class="cls-2" x="1" width="1" height="1" transform="translate(2 -1) rotate(90)"/><rect class="cls-1" x="1" y="1" width="1" height="1" transform="translate(3) rotate(90)"/><rect class="cls-2" x="1" y="2" width="1" height="1" transform="translate(4 1) rotate(90)"/><rect class="cls-1" x="1" y="3" width="1" height="1" transform="translate(5 2) rotate(90)"/><rect class="cls-3" x="1" y="4" width="1" height="1" transform="translate(6 3) rotate(90)"/><rect class="cls-1" x="1" y="5" width="1" height="1" transform="translate(7 4) rotate(90)"/><rect class="cls-4" x="1" y="6" width="1" height="1" transform="translate(8 5) rotate(90)"/><rect class="cls-4" x="1" y="7" width="1" height="1" transform="translate(9 6) rotate(90)"/><rect class="cls-1" x="1" y="8" width="1" height="1" transform="translate(10 7) rotate(90)"/><rect class="cls-4" x="1" y="9" width="1" height="1" transform="translate(11 8) rotate(90)"/><rect class="cls-2" x="1" y="10" width="1" height="1" transform="translate(12 9) rotate(90)"/><rect class="cls-3" x="1" y="11" width="1" height="1" transform="translate(13 10) rotate(90)"/><rect class="cls-3" x="1" y="12" width="1" height="1" transform="translate(14 11) rotate(90)"/><rect class="cls-2" x="1" y="13" width="1" height="1" transform="translate(15 12) rotate(90)"/><rect class="cls-1" x="1" y="14" width="1" height="1" transform="translate(16 13) rotate(90)"/><rect class="cls-1" x="1" y="15" width="1" height="1" transform="translate(17 14) rotate(90)"/><rect class="cls-1" width="1" height="1" transform="translate(1) rotate(90)"/><rect class="cls-2" y="1" width="1" height="1" transform="translate(2 1) rotate(90)"/><rect class="cls-1" y="2" width="1" height="1" transform="translate(3 2) rotate(90)"/><rect class="cls-3" y="3" width="1" height="1" transform="translate(4 3) rotate(90)"/><rect class="cls-1" y="4" width="1" height="1" transform="translate(5 4) rotate(90)"/><rect class="cls-3" y="5" width="1" height="1" transform="translate(6 5) rotate(90)"/><rect class="cls-3" y="6" width="1" height="1" transform="translate(7 6) rotate(90)"/><rect class="cls-4" y="7" width="1" height="1" transform="translate(8 7) rotate(90)"/><rect class="cls-1" y="8" width="1" height="1" transform="translate(9 8) rotate(90)"/><rect class="cls-4" y="9" width="1" height="1" transform="translate(10 9) rotate(90)"/><rect class="cls-2" y="10" width="1" height="1" transform="translate(11 10) rotate(90)"/><rect class="cls-4" y="11" width="1" height="1" transform="translate(12 11) rotate(90)"/><rect class="cls-1" y="12" width="1" height="1" transform="translate(13 12) rotate(90)"/><rect class="cls-4" y="13" width="1" height="1" transform="translate(14 13) rotate(90)"/><rect class="cls-3" y="14" width="1" height="1" transform="translate(15 14) rotate(90)"/><rect class="cls-3" y="15" width="1" height="1" transform="translate(16 15) rotate(90)"/></svg>