<svg id="Layer_1" data-name="Layer 1" xmlns="http://www.w3.org/2000/svg" viewBox="0 0 16 16"><defs><style>.cls-1{fill:#7f7d7e;}.cls-2{fill:#7d7e7d;}.cls-3{fill:#7f7e7d;}.cls-4{fill:#7e7e7e;}.cls-5{fill:#7d7f7d;}.cls-6{fill:#7b7d7c;}.cls-7{fill:#7f807f;}.cls-8{fill:#828282;}.cls-9{fill:#838483;}.cls-10{fill:#848484;}.cls-11{fill:#848485;}.cls-12{fill:#797979;}.cls-13{fill:#d1d0d0;}.cls-14{fill:#d4d2d2;}.cls-15{fill:#d0d0cf;}.cls-16{fill:#cfcdcd;}.cls-17{fill:#cacac9;}.cls-18{fill:#c2c2c1;}.cls-19{fill:#bcbbbb;}.cls-20{fill:#bfbebe;}.cls-21{fill:#bfbdbe;}.cls-22{fill:#c0bfbe;}.cls-23{fill:#c0bebf;}.cls-24{fill:#c2c0c1;}.cls-25{fill:#c0bfbf;}.cls-26{fill:#c1bfbf;}.cls-27{fill:#c1bfc0;}.cls-28{fill:#c1c1c0;}.cls-29{fill:#c5c4c4;}.cls-30{fill:#c7c5c6;}.cls-31{fill:#c7c6c6;}.cls-32{fill:#c6c4c4;}.cls-33{fill:#c8c6c5;}.cls-34{fill:#c7c8c6;}.cls-35{fill:#c9c7c7;}.cls-36{fill:#c9c8c7;}.cls-37{fill:#bcbaba;}.cls-38{fill:#b8b6b6;}.cls-39{fill:#898788;}.cls-40{fill:#858584;}.cls-41{fill:#818080;}.cls-42{fill:#797a7a;}.cls-43{fill:#cccbcc;}.cls-44{fill:#f4f4f4;}.cls-45{fill:#fbfafa;}.cls-46{fill:#fafaf9;}.cls-47{fill:#dfdfdf;}.cls-48{fill:#d8d7d7;}.cls-49{fill:#cdcccc;}.cls-50{fill:#c6c7c7;}.cls-51{fill:#c4c3c4;}.cls-52{fill:#c2c3c2;}.cls-53{fill:#858586;}.cls-54{fill:#787979;}.cls-55{fill:#797978;}.cls-56{fill:#797a79;}.cls-57{fill:#b0afaf;}.cls-58{fill:#dedcdd;}.cls-59{fill:#e9e9ea;}.cls-60{fill:#e9e8e8;}.cls-61{fill:#b5b6b6;}.cls-62{fill:#797879;}.cls-63{fill:#79787a;}.cls-64{fill:#787879;}.cls-65{fill:#9a9999;}.cls-66{fill:#bab8b8;}.cls-67{fill:#9b9b9a;}.cls-68{fill:#929292;}.cls-69{fill:#939291;}.cls-70{fill:#939192;}.cls-71{fill:#969695;}.cls-72{fill:#aba9a9;}.cls-73{fill:#aaa9a8;}.cls-74{fill:#a8a8a8;}.cls-75{fill:#ababaa;}.cls-76{fill:#adadad;}.cls-77{fill:#bebfbe;}.cls-78{fill:#bfbfbf;}.cls-79{fill:#c1bfc1;}.cls-80{fill:#c1c0c0;}.cls-81{fill:#c2c0bf;}.cls-82{fill:#c1c0bf;}.cls-83{fill:#c2c1c1;}.cls-84{fill:#c0bebe;}.cls-85{fill:#c2c1c2;}.cls-86{fill:#c2c1c0;}.cls-87{fill:#c4c2c1;}.cls-88{fill:#c3c1c2;}.cls-89{fill:#c3c2c2;}.cls-90{fill:#c4c3c3;}.cls-91{fill:#c4c2c3;}.cls-92{fill:#c5c3c4;}.cls-93{fill:#b8b7b7;}.cls-94{fill:#878586;}.cls-95{fill:#878787;}.cls-96{fill:#abaaaa;}.cls-97{fill:#e4e5e4;}.cls-98{fill:#e9e9e9;}.cls-99{fill:#e6e6e7;}.cls-100{fill:#e6e5e5;}.cls-101{fill:#e4e4e4;}.cls-102{fill:#e5e4e4;}.cls-103{fill:#e4e4e3;}.cls-104{fill:#dddcdc;}.cls-105{fill:#9c9b9b;}.cls-106{fill:#8e8e8d;}.cls-107{fill:#8e8e8e;}.cls-108{fill:#878888;}.cls-109{fill:#898989;}.cls-110{fill:#bab9b9;}.cls-111{fill:#c1c2c1;}.cls-112{fill:#b0b1b1;}.cls-113{fill:#abaaab;}.cls-114{fill:#a9a8a8;}.cls-115{fill:#a5a5a4;}.cls-116{fill:#9f9fa0;}.cls-117{fill:#7a7a79;}.cls-118{fill:#c3c3c2;}.cls-119{fill:#bcbbbc;}.cls-120{fill:#909090;}.cls-121{fill:#787878;}.cls-122{fill:#78797a;}.cls-123{fill:#7a7979;}.cls-124{fill:#797a78;}.cls-125{fill:#adadac;}.cls-126{fill:#ababab;}.cls-127{fill:#adacac;}.cls-128{fill:#cac8c9;}.cls-129{fill:#cac9c9;}.cls-130{fill:#c9c7c8;}.cls-131{fill:#c8c6c6;}.cls-132{fill:#c5c3c2;}.cls-133{fill:#bebcbb;}.cls-134{fill:#bebcbc;}.cls-135{fill:#bfbdbd;}.cls-136{fill:#bebdbe;}.cls-137{fill:#bebcbd;}.cls-138{fill:#c3c2c1;}.cls-139{fill:#c4c4c3;}.cls-140{fill:#c4c3c2;}.cls-141{fill:#c4c2c2;}.cls-142{fill:#c3c3c1;}.cls-143{fill:#828281;}.cls-144{fill:#848685;}.cls-145{fill:#9d9d9d;}.cls-146{fill:#dbdcdb;}.cls-147{fill:#eee;}.cls-148{fill:#f4f3f3;}.cls-149{fill:#f8f7f8;}.cls-150{fill:#fcfcfc;}.cls-151{fill:#fefdfc;}.cls-152{fill:#fafafa;}.cls-153{fill:#aeafaf;}.cls-154{fill:#969495;}.cls-155{fill:#9c9a9b;}.cls-156{fill:#939294;}.cls-157{fill:#b8b8b9;}.cls-158{fill:#fcfdfe;}.cls-159{fill:#fcfbfc;}.cls-160{fill:#ededec;}.cls-161{fill:#e2e3e2;}.cls-162{fill:#838383;}.cls-163{fill:#787a79;}.cls-164{fill:#79797a;}.cls-165{fill:#7a797a;}.cls-166{fill:#818182;}.cls-167{fill:#8c8c8b;}.cls-168{fill:#7a7b7b;}</style></defs><rect class="cls-1" x="15" y="15" width="1" height="1" transform="translate(31 31) rotate(180)"/><rect class="cls-2" x="14" y="15" width="1" height="1" transform="translate(29 31) rotate(180)"/><rect class="cls-3" x="13" y="15" width="1" height="1" transform="translate(27 31) rotate(180)"/><rect class="cls-4" x="12" y="15" width="1" height="1" transform="translate(25 31) rotate(180)"/><rect class="cls-5" x="11" y="15" width="1" height="1" transform="translate(23 31) rotate(180)"/><rect class="cls-6" x="10" y="15" width="1" height="1" transform="translate(21 31) rotate(180)"/><rect class="cls-7" x="9" y="15" width="1" height="1" transform="translate(19 31) rotate(180)"/><rect class="cls-8" x="8" y="15" width="1" height="1" transform="translate(17 31) rotate(180)"/><rect class="cls-9" x="7" y="15" width="1" height="1" transform="translate(15 31) rotate(180)"/><rect class="cls-10" x="6" y="15" width="1" height="1" transform="translate(13 31) rotate(180)"/><rect class="cls-11" x="5" y="15" width="1" height="1" transform="translate(11 31) rotate(180)"/><rect class="cls-1" x="4" y="15" width="1" height="1" transform="translate(9 31) rotate(180)"/><rect class="cls-1" x="3" y="15" width="1" height="1" transform="translate(7 31) rotate(180)"/><rect class="cls-4" x="2" y="15" width="1" height="1" transform="translate(5 31) rotate(180)"/><rect class="cls-12" x="1" y="15" width="1" height="1" transform="translate(3 31) rotate(180)"/><rect class="cls-12" y="15" width="1" height="1" transform="translate(1 31) rotate(180)"/><rect class="cls-13" x="15" y="14" width="1" height="1" transform="translate(31 29) rotate(180)"/><rect class="cls-14" x="14" y="14" width="1" height="1" transform="translate(29 29) rotate(180)"/><rect class="cls-15" x="13" y="14" width="1" height="1" transform="translate(27 29) rotate(180)"/><rect class="cls-16" x="12" y="14" width="1" height="1" transform="translate(25 29) rotate(180)"/><rect class="cls-17" x="11" y="14" width="1" height="1" transform="translate(23 29) rotate(180)"/><rect class="cls-18" x="10" y="14" width="1" height="1" transform="translate(21 29) rotate(180)"/><rect class="cls-19" x="9" y="14" width="1" height="1" transform="translate(19 29) rotate(180)"/><rect class="cls-20" x="8" y="14" width="1" height="1" transform="translate(17 29) rotate(180)"/><rect class="cls-20" x="7" y="14" width="1" height="1" transform="translate(15 29) rotate(180)"/><rect class="cls-21" x="6" y="14" width="1" height="1" transform="translate(13 29) rotate(180)"/><rect class="cls-21" x="5" y="14" width="1" height="1" transform="translate(11 29) rotate(180)"/><rect class="cls-22" x="4" y="14" width="1" height="1" transform="translate(9 29) rotate(180)"/><rect class="cls-23" x="3" y="14" width="1" height="1" transform="translate(7 29) rotate(180)"/><rect class="cls-24" x="2" y="14" width="1" height="1" transform="translate(5 29) rotate(180)"/><rect class="cls-25" x="1" y="14" width="1" height="1" transform="translate(3 29) rotate(180)"/><rect class="cls-23" y="14" width="1" height="1" transform="translate(1 29) rotate(180)"/><rect class="cls-26" x="15" y="13" width="1" height="1" transform="translate(31 27) rotate(180)"/><rect class="cls-26" x="14" y="13" width="1" height="1" transform="translate(29 27) rotate(180)"/><rect class="cls-27" x="13" y="13" width="1" height="1" transform="translate(27 27) rotate(180)"/><rect class="cls-28" x="12" y="13" width="1" height="1" transform="translate(25 27) rotate(180)"/><rect class="cls-29" x="11" y="13" width="1" height="1" transform="translate(23 27) rotate(180)"/><rect class="cls-30" x="10" y="13" width="1" height="1" transform="translate(21 27) rotate(180)"/><rect class="cls-31" x="9" y="13" width="1" height="1" transform="translate(19 27) rotate(180)"/><rect class="cls-32" x="8" y="13" width="1" height="1" transform="translate(17 27) rotate(180)"/><rect class="cls-33" x="7" y="13" width="1" height="1" transform="translate(15 27) rotate(180)"/><rect class="cls-31" x="6" y="13" width="1" height="1" transform="translate(13 27) rotate(180)"/><rect class="cls-31" x="5" y="13" width="1" height="1" transform="translate(11 27) rotate(180)"/><rect class="cls-34" x="4" y="13" width="1" height="1" transform="translate(9 27) rotate(180)"/><rect class="cls-35" x="3" y="13" width="1" height="1" transform="translate(7 27) rotate(180)"/><rect class="cls-36" x="2" y="13" width="1" height="1" transform="translate(5 27) rotate(180)"/><rect class="cls-37" x="1" y="13" width="1" height="1" transform="translate(3 27) rotate(180)"/><rect class="cls-38" y="13" width="1" height="1" transform="translate(1 27) rotate(180)"/><rect class="cls-39" x="15" y="12" width="1" height="1" transform="translate(31 25) rotate(180)"/><rect class="cls-40" x="14" y="12" width="1" height="1" transform="translate(29 25) rotate(180)"/><rect class="cls-41" x="13" y="12" width="1" height="1" transform="translate(27 25) rotate(180)"/><rect class="cls-42" x="12" y="12" width="1" height="1" transform="translate(25 25) rotate(180)"/><rect class="cls-43" x="11" y="12" width="1" height="1" transform="translate(23 25) rotate(180)"/><rect class="cls-44" x="10" y="12" width="1" height="1" transform="translate(21 25) rotate(180)"/><rect class="cls-45" x="9" y="12" width="1" height="1" transform="translate(19 25) rotate(180)"/><rect class="cls-46" x="8" y="12" width="1" height="1" transform="translate(17 25) rotate(180)"/><rect class="cls-47" x="7" y="12" width="1" height="1" transform="translate(15 25) rotate(180)"/><rect class="cls-48" x="6" y="12" width="1" height="1" transform="translate(13 25) rotate(180)"/><rect class="cls-49" x="5" y="12" width="1" height="1" transform="translate(11 25) rotate(180)"/><rect class="cls-50" x="4" y="12" width="1" height="1" transform="translate(9 25) rotate(180)"/><rect class="cls-51" x="3" y="12" width="1" height="1" transform="translate(7 25) rotate(180)"/><rect class="cls-52" x="2" y="12" width="1" height="1" transform="translate(5 25) rotate(180)"/><rect class="cls-53" x="1" y="12" width="1" height="1" transform="translate(3 25) rotate(180)"/><rect class="cls-12" y="12" width="1" height="1" transform="translate(1 25) rotate(180)"/><rect class="cls-12" x="15" y="11" width="1" height="1" transform="translate(31 23) rotate(180)"/><rect class="cls-54" x="14" y="11" width="1" height="1" transform="translate(29 23) rotate(180)"/><rect class="cls-55" x="13" y="11" width="1" height="1" transform="translate(27 23) rotate(180)"/><rect class="cls-12" x="12" y="11" width="1" height="1" transform="translate(25 23) rotate(180)"/><rect class="cls-56" x="11" y="11" width="1" height="1" transform="translate(23 23) rotate(180)"/><rect class="cls-57" x="10" y="11" width="1" height="1" transform="translate(21 23) rotate(180)"/><rect class="cls-58" x="9" y="11" width="1" height="1" transform="translate(19 23) rotate(180)"/><rect class="cls-59" x="8" y="11" width="1" height="1" transform="translate(17 23) rotate(180)"/><rect class="cls-60" x="7" y="11" width="1" height="1" transform="translate(15 23) rotate(180)"/><rect class="cls-61" x="6" y="11" width="1" height="1" transform="translate(13 23) rotate(180)"/><rect class="cls-12" x="5" y="11" width="1" height="1" transform="translate(11 23) rotate(180)"/><rect class="cls-12" x="4" y="11" width="1" height="1" transform="translate(9 23) rotate(180)"/><rect class="cls-55" x="3" y="11" width="1" height="1" transform="translate(7 23) rotate(180)"/><rect class="cls-62" x="2" y="11" width="1" height="1" transform="translate(5 23) rotate(180)"/><rect class="cls-12" x="1" y="11" width="1" height="1" transform="translate(3 23) rotate(180)"/><rect class="cls-12" y="11" width="1" height="1" transform="translate(1 23) rotate(180)"/><rect class="cls-54" x="15" y="10" width="1" height="1" transform="translate(31 21) rotate(180)"/><rect class="cls-56" x="14" y="10" width="1" height="1" transform="translate(29 21) rotate(180)"/><rect class="cls-63" x="13" y="10" width="1" height="1" transform="translate(27 21) rotate(180)"/><rect class="cls-12" x="12" y="10" width="1" height="1" transform="translate(25 21) rotate(180)"/><rect class="cls-12" x="11" y="10" width="1" height="1" transform="translate(23 21) rotate(180)"/><rect class="cls-64" x="10" y="10" width="1" height="1" transform="translate(21 21) rotate(180)"/><rect class="cls-65" x="9" y="10" width="1" height="1" transform="translate(19 21) rotate(180)"/><rect class="cls-66" x="8" y="10" width="1" height="1" transform="translate(17 21) rotate(180)"/><rect class="cls-67" x="7" y="10" width="1" height="1" transform="translate(15 21) rotate(180)"/><rect class="cls-68" x="6" y="10" width="1" height="1" transform="translate(13 21) rotate(180)"/><rect class="cls-69" x="5" y="10" width="1" height="1" transform="translate(11 21) rotate(180)"/><rect class="cls-70" x="4" y="10" width="1" height="1" transform="translate(9 21) rotate(180)"/><rect class="cls-68" x="3" y="10" width="1" height="1" transform="translate(7 21) rotate(180)"/><rect class="cls-68" x="2" y="10" width="1" height="1" transform="translate(5 21) rotate(180)"/><rect class="cls-71" x="1" y="10" width="1" height="1" transform="translate(3 21) rotate(180)"/><rect class="cls-65" y="10" width="1" height="1" transform="translate(1 21) rotate(180)"/><rect class="cls-72" x="15" y="9" width="1" height="1" transform="translate(31 19) rotate(180)"/><rect class="cls-73" x="14" y="9" width="1" height="1" transform="translate(29 19) rotate(180)"/><rect class="cls-74" x="13" y="9" width="1" height="1" transform="translate(27 19) rotate(180)"/><rect class="cls-73" x="12" y="9" width="1" height="1" transform="translate(25 19) rotate(180)"/><rect class="cls-75" x="11" y="9" width="1" height="1" transform="translate(23 19) rotate(180)"/><rect class="cls-76" x="10" y="9" width="1" height="1" transform="translate(21 19) rotate(180)"/><rect class="cls-77" x="9" y="9" width="1" height="1" transform="translate(19 19) rotate(180)"/><rect class="cls-26" x="8" y="9" width="1" height="1" transform="translate(17 19) rotate(180)"/><rect class="cls-27" x="7" y="9" width="1" height="1" transform="translate(15 19) rotate(180)"/><rect class="cls-78" x="6" y="9" width="1" height="1" transform="translate(13 19) rotate(180)"/><rect class="cls-79" x="5" y="9" width="1" height="1" transform="translate(11 19) rotate(180)"/><rect class="cls-80" x="4" y="9" width="1" height="1" transform="translate(9 19) rotate(180)"/><rect class="cls-81" x="3" y="9" width="1" height="1" transform="translate(7 19) rotate(180)"/><rect class="cls-82" x="2" y="9" width="1" height="1" transform="translate(5 19) rotate(180)"/><rect class="cls-83" x="1" y="9" width="1" height="1" transform="translate(3 19) rotate(180)"/><rect class="cls-84" y="9" width="1" height="1" transform="translate(1 19) rotate(180)"/><rect class="cls-83" x="15" y="8" width="1" height="1" transform="translate(31 17) rotate(180)"/><rect class="cls-85" x="14" y="8" width="1" height="1" transform="translate(29 17) rotate(180)"/><rect class="cls-86" x="13" y="8" width="1" height="1" transform="translate(27 17) rotate(180)"/><rect class="cls-24" x="12" y="8" width="1" height="1" transform="translate(25 17) rotate(180)"/><rect class="cls-86" x="11" y="8" width="1" height="1" transform="translate(23 17) rotate(180)"/><rect class="cls-87" x="10" y="8" width="1" height="1" transform="translate(21 17) rotate(180)"/><rect class="cls-88" x="9" y="8" width="1" height="1" transform="translate(19 17) rotate(180)"/><rect class="cls-89" x="8" y="8" width="1" height="1" transform="translate(17 17) rotate(180)"/><rect class="cls-90" x="7" y="8" width="1" height="1" transform="translate(15 17) rotate(180)"/><rect class="cls-91" x="6" y="8" width="1" height="1" transform="translate(13 17) rotate(180)"/><rect class="cls-32" x="5" y="8" width="1" height="1" transform="translate(11 17) rotate(180)"/><rect class="cls-92" x="4" y="8" width="1" height="1" transform="translate(9 17) rotate(180)"/><rect class="cls-86" x="3" y="8" width="1" height="1" transform="translate(7 17) rotate(180)"/><rect class="cls-27" x="2" y="8" width="1" height="1" transform="translate(5 17) rotate(180)"/><rect class="cls-20" x="1" y="8" width="1" height="1" transform="translate(3 17) rotate(180)"/><rect class="cls-93" y="8" width="1" height="1" transform="translate(1 17) rotate(180)"/><rect class="cls-94" x="15" y="7" width="1" height="1" transform="translate(31 15) rotate(180)"/><rect class="cls-95" x="14" y="7" width="1" height="1" transform="translate(29 15) rotate(180)"/><rect class="cls-96" x="13" y="7" width="1" height="1" transform="translate(27 15) rotate(180)"/><rect class="cls-97" x="12" y="7" width="1" height="1" transform="translate(25 15) rotate(180)"/><rect class="cls-98" x="11" y="7" width="1" height="1" transform="translate(23 15) rotate(180)"/><rect class="cls-99" x="10" y="7" width="1" height="1" transform="translate(21 15) rotate(180)"/><rect class="cls-100" x="9" y="7" width="1" height="1" transform="translate(19 15) rotate(180)"/><rect class="cls-101" x="8" y="7" width="1" height="1" transform="translate(17 15) rotate(180)"/><rect class="cls-102" x="7" y="7" width="1" height="1" transform="translate(15 15) rotate(180)"/><rect class="cls-103" x="6" y="7" width="1" height="1" transform="translate(13 15) rotate(180)"/><rect class="cls-101" x="5" y="7" width="1" height="1" transform="translate(11 15) rotate(180)"/><rect class="cls-104" x="4" y="7" width="1" height="1" transform="translate(9 15) rotate(180)"/><rect class="cls-105" x="3" y="7" width="1" height="1" transform="translate(7 15) rotate(180)"/><rect class="cls-106" x="2" y="7" width="1" height="1" transform="translate(5 15) rotate(180)"/><rect class="cls-107" x="1" y="7" width="1" height="1" transform="translate(3 15) rotate(180)"/><rect class="cls-108" y="7" width="1" height="1" transform="translate(1 15) rotate(180)"/><rect class="cls-54" x="15" y="6" width="1" height="1" transform="translate(31 13) rotate(180)"/><rect class="cls-12" x="14" y="6" width="1" height="1" transform="translate(29 13) rotate(180)"/><rect class="cls-109" x="13" y="6" width="1" height="1" transform="translate(27 13) rotate(180)"/><rect class="cls-110" x="12" y="6" width="1" height="1" transform="translate(25 13) rotate(180)"/><rect class="cls-111" x="11" y="6" width="1" height="1" transform="translate(23 13) rotate(180)"/><rect class="cls-110" x="10" y="6" width="1" height="1" transform="translate(21 13) rotate(180)"/><rect class="cls-112" x="9" y="6" width="1" height="1" transform="translate(19 13) rotate(180)"/><rect class="cls-113" x="8" y="6" width="1" height="1" transform="translate(17 13) rotate(180)"/><rect class="cls-114" x="7" y="6" width="1" height="1" transform="translate(15 13) rotate(180)"/><rect class="cls-115" x="6" y="6" width="1" height="1" transform="translate(13 13) rotate(180)"/><rect class="cls-116" x="5" y="6" width="1" height="1" transform="translate(11 13) rotate(180)"/><rect class="cls-109" x="4" y="6" width="1" height="1" transform="translate(9 13) rotate(180)"/><rect class="cls-55" x="3" y="6" width="1" height="1" transform="translate(7 13) rotate(180)"/><rect class="cls-12" x="2" y="6" width="1" height="1" transform="translate(5 13) rotate(180)"/><rect class="cls-54" x="1" y="6" width="1" height="1" transform="translate(3 13) rotate(180)"/><rect class="cls-62" y="6" width="1" height="1" transform="translate(1 13) rotate(180)"/><rect class="cls-117" x="15" y="5" width="1" height="1" transform="translate(31 11) rotate(180)"/><rect class="cls-55" x="14" y="5" width="1" height="1" transform="translate(29 11) rotate(180)"/><rect class="cls-12" x="13" y="5" width="1" height="1" transform="translate(27 11) rotate(180)"/><rect class="cls-12" x="12" y="5" width="1" height="1" transform="translate(25 11) rotate(180)"/><rect class="cls-108" x="11" y="5" width="1" height="1" transform="translate(23 11) rotate(180)"/><rect class="cls-118" x="10" y="5" width="1" height="1" transform="translate(21 11) rotate(180)"/><rect class="cls-119" x="9" y="5" width="1" height="1" transform="translate(19 11) rotate(180)"/><rect class="cls-120" x="8" y="5" width="1" height="1" transform="translate(17 11) rotate(180)"/><rect class="cls-56" x="7" y="5" width="1" height="1" transform="translate(15 11) rotate(180)"/><rect class="cls-121" x="6" y="5" width="1" height="1" transform="translate(13 11) rotate(180)"/><rect class="cls-122" x="5" y="5" width="1" height="1" transform="translate(11 11) rotate(180)"/><rect class="cls-62" x="4" y="5" width="1" height="1" transform="translate(9 11) rotate(180)"/><rect class="cls-123" x="3" y="5" width="1" height="1" transform="translate(7 11) rotate(180)"/><rect class="cls-12" x="2" y="5" width="1" height="1" transform="translate(5 11) rotate(180)"/><rect class="cls-12" x="1" y="5" width="1" height="1" transform="translate(3 11) rotate(180)"/><rect class="cls-124" y="5" width="1" height="1" transform="translate(1 11) rotate(180)"/><rect class="cls-125" x="15" y="4" width="1" height="1" transform="translate(31 9) rotate(180)"/><rect class="cls-126" x="14" y="4" width="1" height="1" transform="translate(29 9) rotate(180)"/><rect class="cls-127" x="13" y="4" width="1" height="1" transform="translate(27 9) rotate(180)"/><rect class="cls-37" x="12" y="4" width="1" height="1" transform="translate(25 9) rotate(180)"/><rect class="cls-22" x="11" y="4" width="1" height="1" transform="translate(23 9) rotate(180)"/><rect class="cls-128" x="10" y="4" width="1" height="1" transform="translate(21 9) rotate(180)"/><rect class="cls-129" x="9" y="4" width="1" height="1" transform="translate(19 9) rotate(180)"/><rect class="cls-130" x="8" y="4" width="1" height="1" transform="translate(17 9) rotate(180)"/><rect class="cls-131" x="7" y="4" width="1" height="1" transform="translate(15 9) rotate(180)"/><rect class="cls-29" x="6" y="4" width="1" height="1" transform="translate(13 9) rotate(180)"/><rect class="cls-132" x="5" y="4" width="1" height="1" transform="translate(11 9) rotate(180)"/><rect class="cls-85" x="4" y="4" width="1" height="1" transform="translate(9 9) rotate(180)"/><rect class="cls-133" x="3" y="4" width="1" height="1" transform="translate(7 9) rotate(180)"/><rect class="cls-134" x="2" y="4" width="1" height="1" transform="translate(5 9) rotate(180)"/><rect class="cls-135" x="1" y="4" width="1" height="1" transform="translate(3 9) rotate(180)"/><rect class="cls-136" y="4" width="1" height="1" transform="translate(1 9) rotate(180)"/><rect class="cls-137" x="15" y="3" width="1" height="1" transform="translate(31 7) rotate(180)"/><rect class="cls-20" x="14" y="3" width="1" height="1" transform="translate(29 7) rotate(180)"/><rect class="cls-32" x="13" y="3" width="1" height="1" transform="translate(27 7) rotate(180)"/><rect class="cls-90" x="12" y="3" width="1" height="1" transform="translate(25 7) rotate(180)"/><rect class="cls-138" x="11" y="3" width="1" height="1" transform="translate(23 7) rotate(180)"/><rect class="cls-139" x="10" y="3" width="1" height="1" transform="translate(21 7) rotate(180)"/><rect class="cls-140" x="9" y="3" width="1" height="1" transform="translate(19 7) rotate(180)"/><rect class="cls-141" x="8" y="3" width="1" height="1" transform="translate(17 7) rotate(180)"/><rect class="cls-88" x="7" y="3" width="1" height="1" transform="translate(15 7) rotate(180)"/><rect class="cls-89" x="6" y="3" width="1" height="1" transform="translate(13 7) rotate(180)"/><rect class="cls-89" x="5" y="3" width="1" height="1" transform="translate(11 7) rotate(180)"/><rect class="cls-142" x="4" y="3" width="1" height="1" transform="translate(9 7) rotate(180)"/><rect class="cls-87" x="3" y="3" width="1" height="1" transform="translate(7 7) rotate(180)"/><rect class="cls-118" x="2" y="3" width="1" height="1" transform="translate(5 7) rotate(180)"/><rect class="cls-141" x="1" y="3" width="1" height="1" transform="translate(3 7) rotate(180)"/><rect class="cls-24" y="3" width="1" height="1" transform="translate(1 7) rotate(180)"/><rect class="cls-143" x="15" y="2" width="1" height="1" transform="translate(31 5) rotate(180)"/><rect class="cls-144" x="14" y="2" width="1" height="1" transform="translate(29 5) rotate(180)"/><rect class="cls-145" x="13" y="2" width="1" height="1" transform="translate(27 5) rotate(180)"/><rect class="cls-78" x="12" y="2" width="1" height="1" transform="translate(25 5) rotate(180)"/><rect class="cls-146" x="11" y="2" width="1" height="1" transform="translate(23 5) rotate(180)"/><rect class="cls-147" x="10" y="2" width="1" height="1" transform="translate(21 5) rotate(180)"/><rect class="cls-148" x="9" y="2" width="1" height="1" transform="translate(19 5) rotate(180)"/><rect class="cls-44" x="8" y="2" width="1" height="1" transform="translate(17 5) rotate(180)"/><rect class="cls-149" x="7" y="2" width="1" height="1" transform="translate(15 5) rotate(180)"/><rect class="cls-150" x="6" y="2" width="1" height="1" transform="translate(13 5) rotate(180)"/><rect class="cls-151" x="5" y="2" width="1" height="1" transform="translate(11 5) rotate(180)"/><rect class="cls-152" x="4" y="2" width="1" height="1" transform="translate(9 5) rotate(180)"/><rect class="cls-153" x="3" y="2" width="1" height="1" transform="translate(7 5) rotate(180)"/><rect class="cls-154" x="2" y="2" width="1" height="1" transform="translate(5 5) rotate(180)"/><rect class="cls-155" x="1" y="2" width="1" height="1" transform="translate(3 5) rotate(180)"/><rect class="cls-156" y="2" width="1" height="1" transform="translate(1 5) rotate(180)"/><rect class="cls-12" x="15" y="1" width="1" height="1" transform="translate(31 3) rotate(180)"/><rect class="cls-157" x="14" y="1" width="1" height="1" transform="translate(29 3) rotate(180)"/><rect class="cls-158" x="13" y="1" width="1" height="1" transform="translate(27 3) rotate(180)"/><rect class="cls-159" x="12" y="1" width="1" height="1" transform="translate(25 3) rotate(180)"/><rect class="cls-160" x="11" y="1" width="1" height="1" transform="translate(23 3) rotate(180)"/><rect class="cls-161" x="10" y="1" width="1" height="1" transform="translate(21 3) rotate(180)"/><rect class="cls-162" x="9" y="1" width="1" height="1" transform="translate(19 3) rotate(180)"/><rect class="cls-124" x="8" y="1" width="1" height="1" transform="translate(17 3) rotate(180)"/><rect class="cls-163" x="7" y="1" width="1" height="1" transform="translate(15 3) rotate(180)"/><rect class="cls-54" x="6" y="1" width="1" height="1" transform="translate(13 3) rotate(180)"/><rect class="cls-54" x="5" y="1" width="1" height="1" transform="translate(11 3) rotate(180)"/><rect class="cls-54" x="4" y="1" width="1" height="1" transform="translate(9 3) rotate(180)"/><rect class="cls-12" x="3" y="1" width="1" height="1" transform="translate(7 3) rotate(180)"/><rect class="cls-54" x="2" y="1" width="1" height="1" transform="translate(5 3) rotate(180)"/><rect class="cls-164" x="1" y="1" width="1" height="1" transform="translate(3 3) rotate(180)"/><rect class="cls-164" y="1" width="1" height="1" transform="translate(1 3) rotate(180)"/><rect class="cls-64" x="15" width="1" height="1" transform="translate(31 1) rotate(180)"/><rect class="cls-55" x="14" width="1" height="1" transform="translate(29 1) rotate(180)"/><rect class="cls-165" x="13" width="1" height="1" transform="translate(27 1) rotate(180)"/><rect class="cls-166" x="12" width="1" height="1" transform="translate(25 1) rotate(180)"/><rect class="cls-54" x="11" width="1" height="1" transform="translate(23 1) rotate(180)"/><rect class="cls-167" x="10" width="1" height="1" transform="translate(21 1) rotate(180)"/><rect class="cls-168" x="9" width="1" height="1" transform="translate(19 1) rotate(180)"/><rect class="cls-55" x="8" width="1" height="1" transform="translate(17 1) rotate(180)"/><rect class="cls-12" x="7" width="1" height="1" transform="translate(15 1) rotate(180)"/><rect class="cls-54" x="6" width="1" height="1" transform="translate(13 1) rotate(180)"/><rect class="cls-54" x="5" width="1" height="1" transform="translate(11 1) rotate(180)"/><rect class="cls-54" x="4" width="1" height="1" transform="translate(9 1) rotate(180)"/><rect class="cls-54" x="3" width="1" height="1" transform="translate(7 1) rotate(180)"/><rect class="cls-12" x="2" width="1" height="1" transform="translate(5 1) rotate(180)"/><rect class="cls-12" x="1" width="1" height="1" transform="translate(3 1) rotate(180)"/><rect class="cls-12" width="1" height="1" transform="translate(1 1) rotate(180)"/></svg>