<svg id="Layer_1" data-name="Layer 1" xmlns="http://www.w3.org/2000/svg" viewBox="0 0 16 16"><defs><style>.cls-1,.cls-10,.cls-11,.cls-14,.cls-15,.cls-2,.cls-3,.cls-4,.cls-8{fill:#bce6fc;}.cls-2{opacity:0.6;}.cls-3{opacity:0.8;}.cls-12,.cls-4{opacity:0.4;}.cls-12,.cls-13,.cls-5,.cls-6,.cls-7,.cls-9{fill:#cbebfd;}.cls-5,.cls-8{opacity:0.3;}.cls-7{opacity:0.5;}.cls-15,.cls-9{opacity:0.7;}.cls-10{opacity:0.2;}.cls-11,.cls-13{opacity:0.1;}.cls-14{opacity:0.9;}</style></defs><rect class="cls-1" x="15" y="15" width="1" height="1" transform="translate(31 31) rotate(180)"/><rect class="cls-1" x="14" y="15" width="1" height="1" transform="translate(29 31) rotate(180)"/><rect class="cls-1" x="13" y="15" width="1" height="1" transform="translate(27 31) rotate(180)"/><rect class="cls-1" x="12" y="15" width="1" height="1" transform="translate(25 31) rotate(180)"/><rect class="cls-1" x="11" y="15" width="1" height="1" transform="translate(23 31) rotate(180)"/><rect class="cls-1" x="10" y="15" width="1" height="1" transform="translate(21 31) rotate(180)"/><rect class="cls-1" x="9" y="15" width="1" height="1" transform="translate(19 31) rotate(180)"/><rect class="cls-1" x="8" y="15" width="1" height="1" transform="translate(17 31) rotate(180)"/><rect class="cls-1" x="7" y="15" width="1" height="1" transform="translate(15 31) rotate(180)"/><rect class="cls-2" x="6" y="15" width="1" height="1" transform="translate(13 31) rotate(180)"/><rect class="cls-2" x="5" y="15" width="1" height="1" transform="translate(11 31) rotate(180)"/><rect class="cls-2" x="4" y="15" width="1" height="1" transform="translate(9 31) rotate(180)"/><rect class="cls-3" x="3" y="15" width="1" height="1" transform="translate(7 31) rotate(180)"/><rect class="cls-3" x="2" y="15" width="1" height="1" transform="translate(5 31) rotate(180)"/><rect class="cls-3" x="1" y="15" width="1" height="1" transform="translate(3 31) rotate(180)"/><rect class="cls-1" y="15" width="1" height="1" transform="translate(1 31) rotate(180)"/><rect class="cls-1" x="15" y="14" width="1" height="1" transform="translate(31 29) rotate(180)"/><rect class="cls-4" x="4" y="14" width="1" height="1" transform="translate(9 29) rotate(180)"/><rect class="cls-4" x="3" y="14" width="1" height="1" transform="translate(7 29) rotate(180)"/><rect class="cls-4" x="2" y="14" width="1" height="1" transform="translate(5 29) rotate(180)"/><rect class="cls-4" x="1" y="14" width="1" height="1" transform="translate(3 29) rotate(180)"/><rect class="cls-1" y="14" width="1" height="1" transform="translate(1 29) rotate(180)"/><rect class="cls-1" x="15" y="13" width="1" height="1" transform="translate(31 27) rotate(180)"/><rect class="cls-5" x="4" y="13" width="1" height="1" transform="translate(9 27) rotate(180)"/><rect class="cls-6" x="3" y="13" width="1" height="1" transform="translate(7 27) rotate(180)"/><rect class="cls-7" x="2" y="13" width="1" height="1" transform="translate(5 27) rotate(180)"/><rect class="cls-8" x="1" y="13" width="1" height="1" transform="translate(3 27) rotate(180)"/><rect class="cls-1" y="13" width="1" height="1" transform="translate(1 27) rotate(180)"/><rect class="cls-1" x="15" y="12" width="1" height="1" transform="translate(31 25) rotate(180)"/><rect class="cls-5" x="5" y="12" width="1" height="1" transform="translate(11 25) rotate(180)"/><rect class="cls-6" x="4" y="12" width="1" height="1" transform="translate(9 25) rotate(180)"/><rect class="cls-9" x="3" y="12" width="1" height="1" transform="translate(7 25) rotate(180)"/><rect class="cls-7" x="2" y="12" width="1" height="1" transform="translate(5 25) rotate(180)"/><rect class="cls-10" x="1" y="12" width="1" height="1" transform="translate(3 25) rotate(180)"/><rect class="cls-1" y="12" width="1" height="1" transform="translate(1 25) rotate(180)"/><rect class="cls-1" x="15" y="11" width="1" height="1" transform="translate(31 23) rotate(180)"/><rect class="cls-7" x="2" y="11" width="1" height="1" transform="translate(5 23) rotate(180)"/><rect class="cls-11" x="1" y="11" width="1" height="1" transform="translate(3 23) rotate(180)"/><rect class="cls-1" y="11" width="1" height="1" transform="translate(1 23) rotate(180)"/><rect class="cls-1" x="15" y="10" width="1" height="1" transform="translate(31 21) rotate(180)"/><rect class="cls-12" x="7" y="10" width="1" height="1" transform="translate(15 21) rotate(180)"/><rect class="cls-5" x="6" y="11" width="1" height="1" transform="translate(13 23) rotate(180)"/><rect class="cls-6" x="5" y="11" width="1" height="1" transform="translate(11 23) rotate(180)"/><rect class="cls-6" x="6" y="10" width="1" height="1" transform="translate(13 21) rotate(180)"/><rect class="cls-9" x="5" y="10" width="1" height="1" transform="translate(11 21) rotate(180)"/><rect class="cls-9" x="4" y="11" width="1" height="1" transform="translate(9 23) rotate(180)"/><rect class="cls-13" x="3" y="11" width="1" height="1" transform="translate(7 23) rotate(180)"/><rect class="cls-13" x="4" y="10" width="1" height="1" transform="translate(9 21) rotate(180)"/><rect class="cls-2" y="10" width="1" height="1" transform="translate(1 21) rotate(180)"/><rect class="cls-3" x="15" y="9" width="1" height="1" transform="translate(31 19) rotate(180)"/><rect class="cls-12" x="8" y="9" width="1" height="1" transform="translate(17 19) rotate(180)"/><rect class="cls-6" x="7" y="9" width="1" height="1" transform="translate(15 19) rotate(180)"/><rect class="cls-2" y="9" width="1" height="1" transform="translate(1 19) rotate(180)"/><rect class="cls-3" x="15" y="8" width="1" height="1" transform="translate(31 17) rotate(180)"/><rect class="cls-12" x="9" y="8" width="1" height="1" transform="translate(19 17) rotate(180)"/><rect class="cls-1" y="8" width="1" height="1" transform="translate(1 17) rotate(180)"/><rect class="cls-3" x="15" y="7" width="1" height="1" transform="translate(31 15) rotate(180)"/><rect class="cls-7" x="10" y="7" width="1" height="1" transform="translate(21 15) rotate(180)"/><rect class="cls-6" x="9" y="7" width="1" height="1" transform="translate(19 15) rotate(180)"/><rect class="cls-1" y="7" width="1" height="1" transform="translate(1 15) rotate(180)"/><rect class="cls-3" x="15" y="6" width="1" height="1" transform="translate(31 13) rotate(180)"/><rect class="cls-7" x="11" y="6" width="1" height="1" transform="translate(23 13) rotate(180)"/><rect class="cls-6" x="10" y="6" width="1" height="1" transform="translate(21 13) rotate(180)"/><rect class="cls-9" x="9" y="6" width="1" height="1" transform="translate(19 13) rotate(180)"/><rect class="cls-6" x="2" y="6" width="1" height="1" transform="translate(5 13) rotate(180)"/><rect class="cls-3" y="6" width="1" height="1" transform="translate(1 13) rotate(180)"/><rect class="cls-3" x="15" y="5" width="1" height="1" transform="translate(31 11) rotate(180)"/><rect class="cls-7" x="14" y="5" width="1" height="1" transform="translate(29 11) rotate(180)"/><rect class="cls-7" x="12" y="5" width="1" height="1" transform="translate(25 11) rotate(180)"/><rect class="cls-6" x="11" y="5" width="1" height="1" transform="translate(23 11) rotate(180)"/><rect class="cls-9" x="10" y="5" width="1" height="1" transform="translate(21 11) rotate(180)"/><rect class="cls-13" x="9" y="5" width="1" height="1" transform="translate(19 11) rotate(180)"/><rect class="cls-6" x="8" y="8" width="1" height="1" transform="translate(17 17) rotate(180)"/><rect class="cls-9" x="7" y="8" width="1" height="1" transform="translate(15 17) rotate(180)"/><rect class="cls-13" x="6" y="8" width="1" height="1" transform="translate(13 17) rotate(180)"/><rect class="cls-9" x="6" y="9" width="1" height="1" transform="translate(13 19) rotate(180)"/><rect class="cls-13" x="5" y="9" width="1" height="1" transform="translate(11 19) rotate(180)"/><rect class="cls-9" x="8" y="7" width="1" height="1" transform="translate(17 15) rotate(180)"/><rect class="cls-13" x="7" y="7" width="1" height="1" transform="translate(15 15) rotate(180)"/><rect class="cls-13" x="8" y="6" width="1" height="1" transform="translate(17 13) rotate(180)"/><rect class="cls-6" x="3" y="5" width="1" height="1" transform="translate(7 11) rotate(180)"/><rect class="cls-7" x="2" y="5" width="1" height="1" transform="translate(5 11) rotate(180)"/><rect class="cls-3" y="5" width="1" height="1" transform="translate(1 11) rotate(180)"/><rect class="cls-14" x="15" y="4" width="1" height="1" transform="translate(31 9) rotate(180)"/><rect class="cls-7" x="14" y="4" width="1" height="1" transform="translate(29 9) rotate(180)"/><rect class="cls-6" x="12" y="4" width="1" height="1" transform="translate(25 9) rotate(180)"/><rect class="cls-9" x="11" y="4" width="1" height="1" transform="translate(23 9) rotate(180)"/><rect class="cls-13" x="10" y="4" width="1" height="1" transform="translate(21 9) rotate(180)"/><rect class="cls-6" x="4" y="4" width="1" height="1" transform="translate(9 9) rotate(180)"/><rect class="cls-7" x="3" y="4" width="1" height="1" transform="translate(7 9) rotate(180)"/><rect class="cls-13" x="2" y="4" width="1" height="1" transform="translate(5 9) rotate(180)"/><rect class="cls-3" y="4" width="1" height="1" transform="translate(1 9) rotate(180)"/><rect class="cls-14" x="15" y="3" width="1" height="1" transform="translate(31 7) rotate(180)"/><rect class="cls-5" x="14" y="3" width="1" height="1" transform="translate(29 7) rotate(180)"/><rect class="cls-9" x="12" y="3" width="1" height="1" transform="translate(25 7) rotate(180)"/><rect class="cls-13" x="11" y="3" width="1" height="1" transform="translate(23 7) rotate(180)"/><rect class="cls-6" x="5" y="3" width="1" height="1" transform="translate(11 7) rotate(180)"/><rect class="cls-7" x="4" y="3" width="1" height="1" transform="translate(9 7) rotate(180)"/><rect class="cls-13" x="3" y="3" width="1" height="1" transform="translate(7 7) rotate(180)"/><rect class="cls-3" y="3" width="1" height="1" transform="translate(1 7) rotate(180)"/><rect class="cls-1" x="15" y="2" width="1" height="1" transform="translate(31 5) rotate(180)"/><rect class="cls-5" x="14" y="2" width="1" height="1" transform="translate(29 5) rotate(180)"/><rect class="cls-6" x="6" y="2" width="1" height="1" transform="translate(13 5) rotate(180)"/><rect class="cls-7" x="5" y="2" width="1" height="1" transform="translate(11 5) rotate(180)"/><rect class="cls-13" x="4" y="2" width="1" height="1" transform="translate(9 5) rotate(180)"/><rect class="cls-7" x="3" y="2" width="1" height="1" transform="translate(7 5) rotate(180)"/><rect class="cls-3" y="2" width="1" height="1" transform="translate(1 5) rotate(180)"/><rect class="cls-1" x="15" y="1" width="1" height="1" transform="translate(31 3) rotate(180)"/><rect class="cls-6" x="14" y="1" width="1" height="1" transform="translate(29 3) rotate(180)"/><rect class="cls-5" x="13" y="1" width="1" height="1" transform="translate(27 3) rotate(180)"/><rect class="cls-7" x="12" y="1" width="1" height="1" transform="translate(25 3) rotate(180)"/><rect class="cls-7" x="11" y="1" width="1" height="1" transform="translate(23 3) rotate(180)"/><rect class="cls-7" x="6" y="1" width="1" height="1" transform="translate(13 3) rotate(180)"/><rect class="cls-3" y="1" width="1" height="1" transform="translate(1 3) rotate(180)"/><rect class="cls-1" x="15" width="1" height="1" transform="translate(31 1) rotate(180)"/><rect class="cls-1" x="14" width="1" height="1" transform="translate(29 1) rotate(180)"/><rect class="cls-1" x="13" width="1" height="1" transform="translate(27 1) rotate(180)"/><rect class="cls-1" x="12" width="1" height="1" transform="translate(25 1) rotate(180)"/><rect class="cls-3" x="11" width="1" height="1" transform="translate(23 1) rotate(180)"/><rect class="cls-3" x="10" width="1" height="1" transform="translate(21 1) rotate(180)"/><rect class="cls-3" x="9" width="1" height="1" transform="translate(19 1) rotate(180)"/><rect class="cls-3" x="8" width="1" height="1" transform="translate(17 1) rotate(180)"/><rect class="cls-3" x="7" width="1" height="1" transform="translate(15 1) rotate(180)"/><rect class="cls-15" x="6" width="1" height="1" transform="translate(13 1) rotate(180)"/><rect class="cls-15" x="5" width="1" height="1" transform="translate(11 1) rotate(180)"/><rect class="cls-15" x="4" width="1" height="1" transform="translate(9 1) rotate(180)"/><rect class="cls-15" x="3" width="1" height="1" transform="translate(7 1) rotate(180)"/><rect class="cls-1" x="2" width="1" height="1" transform="translate(5 1) rotate(180)"/><rect class="cls-1" x="1" width="1" height="1" transform="translate(3 1) rotate(180)"/><rect class="cls-1" width="1" height="1" transform="translate(1 1) rotate(180)"/><rect class="cls-6" x="14" y="9" width="1" height="1"/><rect class="cls-6" x="13" y="10" width="1" height="1"/><rect class="cls-7" x="14" y="10" width="1" height="1"/><rect class="cls-6" x="12" y="11" width="1" height="1"/><rect class="cls-7" x="13" y="11" width="1" height="1"/><rect class="cls-13" x="14" y="11" width="1" height="1"/><rect class="cls-6" x="11" y="12" width="1" height="1"/><rect class="cls-7" x="12" y="12" width="1" height="1"/><rect class="cls-13" x="13" y="12" width="1" height="1"/><rect class="cls-6" x="10" y="13" width="1" height="1"/><rect class="cls-7" x="11" y="13" width="1" height="1"/><rect class="cls-13" x="12" y="13" width="1" height="1"/><rect class="cls-7" x="13" y="13" width="1" height="1"/><rect class="cls-7" x="10" y="14" width="1" height="1"/></svg>